<mxfile host="app.diagrams.net" modified="2024-07-14T08:22:29.209Z" agent="Mozilla/5.0 (Windows NT 10.0; Win64; x64) AppleWebKit/537.36 (KHTML, like Gecko) Chrome/126.0.0.0 Safari/537.36" etag="miTOCbCNrfWCQTnKs2zK" version="21.5.2" type="github">
  <diagram name="Page-1" id="zKTBW08-yzVPNaUItypW">
    <mxGraphModel dx="1434" dy="1855" grid="1" gridSize="10" guides="1" tooltips="1" connect="1" arrows="1" fold="1" page="1" pageScale="1" pageWidth="850" pageHeight="1100" math="0" shadow="0">
      <root>
        <mxCell id="0" />
        <mxCell id="1" parent="0" />
        <mxCell id="zotO4yzmj4yLOStzKI4d-3" style="edgeStyle=orthogonalEdgeStyle;rounded=0;orthogonalLoop=1;jettySize=auto;html=1;exitX=0;exitY=0;exitDx=120;exitDy=50;exitPerimeter=0;entryX=0.003;entryY=0.487;entryDx=0;entryDy=0;entryPerimeter=0;" parent="1" source="fBMlEVeHAcpWcudAE6il-2" target="fBMlEVeHAcpWcudAE6il-4" edge="1">
          <mxGeometry relative="1" as="geometry" />
        </mxCell>
        <mxCell id="e7AcpeO70v1B4CvulHkZ-3" style="edgeStyle=orthogonalEdgeStyle;rounded=0;orthogonalLoop=1;jettySize=auto;html=1;exitX=0;exitY=0;exitDx=50;exitDy=0;exitPerimeter=0;entryX=0;entryY=0.75;entryDx=0;entryDy=0;" parent="1" source="fBMlEVeHAcpWcudAE6il-2" target="yq9Uw6k68tb3Hdlw_wv9-5" edge="1">
          <mxGeometry relative="1" as="geometry">
            <Array as="points">
              <mxPoint x="640" y="336" />
              <mxPoint x="640" y="155" />
            </Array>
          </mxGeometry>
        </mxCell>
        <mxCell id="fBMlEVeHAcpWcudAE6il-2" value="WALLET SERVICE" style="shape=cube;whiteSpace=wrap;html=1;boundedLbl=1;backgroundOutline=1;darkOpacity=0.05;darkOpacity2=0.1;" parent="1" vertex="1">
          <mxGeometry x="560" y="336" width="120" height="80" as="geometry" />
        </mxCell>
        <mxCell id="fBMlEVeHAcpWcudAE6il-39" style="edgeStyle=orthogonalEdgeStyle;rounded=0;orthogonalLoop=1;jettySize=auto;html=1;entryX=0;entryY=0.5;entryDx=0;entryDy=0;" parent="1" source="fBMlEVeHAcpWcudAE6il-4" target="fBMlEVeHAcpWcudAE6il-34" edge="1">
          <mxGeometry relative="1" as="geometry" />
        </mxCell>
        <mxCell id="fBMlEVeHAcpWcudAE6il-40" value="API KEY" style="edgeLabel;html=1;align=center;verticalAlign=middle;resizable=0;points=[];" parent="fBMlEVeHAcpWcudAE6il-39" vertex="1" connectable="0">
          <mxGeometry x="-0.2437" y="-1" relative="1" as="geometry">
            <mxPoint x="1" as="offset" />
          </mxGeometry>
        </mxCell>
        <mxCell id="fBMlEVeHAcpWcudAE6il-4" value="EXCHANGE RATE SERVICE" style="shape=cube;whiteSpace=wrap;html=1;boundedLbl=1;backgroundOutline=1;darkOpacity=0.05;darkOpacity2=0.1;" parent="1" vertex="1">
          <mxGeometry x="750" y="180" width="120" height="80" as="geometry" />
        </mxCell>
        <mxCell id="glYZHmGPdBlqkJAoYOEJ-15" style="edgeStyle=orthogonalEdgeStyle;rounded=0;orthogonalLoop=1;jettySize=auto;html=1;exitX=0.5;exitY=1;exitDx=0;exitDy=0;entryX=0;entryY=0;entryDx=0;entryDy=30;entryPerimeter=0;" parent="1" source="fBMlEVeHAcpWcudAE6il-5" target="fBMlEVeHAcpWcudAE6il-17" edge="1">
          <mxGeometry relative="1" as="geometry" />
        </mxCell>
        <mxCell id="fBMlEVeHAcpWcudAE6il-5" value="API GATEWAY" style="rounded=0;whiteSpace=wrap;html=1;rotation=-90;" parent="1" vertex="1">
          <mxGeometry x="-50" y="346" width="525" height="20" as="geometry" />
        </mxCell>
        <mxCell id="fBMlEVeHAcpWcudAE6il-15" style="edgeStyle=orthogonalEdgeStyle;rounded=0;orthogonalLoop=1;jettySize=auto;html=1;exitX=1;exitY=0.5;exitDx=0;exitDy=0;exitPerimeter=0;entryX=0.594;entryY=-0.125;entryDx=0;entryDy=0;entryPerimeter=0;" parent="1" source="fBMlEVeHAcpWcudAE6il-7" target="fBMlEVeHAcpWcudAE6il-5" edge="1">
          <mxGeometry relative="1" as="geometry" />
        </mxCell>
        <mxCell id="fBMlEVeHAcpWcudAE6il-7" value="" style="verticalLabelPosition=bottom;html=1;verticalAlign=top;align=center;strokeColor=none;fillColor=#00BEF2;shape=mxgraph.azure.computer;pointerEvents=1;" parent="1" vertex="1">
          <mxGeometry x="40" y="274" width="80" height="65" as="geometry" />
        </mxCell>
        <mxCell id="fBMlEVeHAcpWcudAE6il-16" style="edgeStyle=orthogonalEdgeStyle;rounded=0;orthogonalLoop=1;jettySize=auto;html=1;entryX=0.322;entryY=0.015;entryDx=0;entryDy=0;entryPerimeter=0;" parent="1" source="fBMlEVeHAcpWcudAE6il-11" target="fBMlEVeHAcpWcudAE6il-5" edge="1">
          <mxGeometry relative="1" as="geometry" />
        </mxCell>
        <mxCell id="fBMlEVeHAcpWcudAE6il-11" value="" style="sketch=0;outlineConnect=0;fontColor=#ffffff;fillColor=#1ba1e2;strokeColor=#006EAF;dashed=0;verticalLabelPosition=bottom;verticalAlign=top;align=center;html=1;fontSize=12;fontStyle=0;aspect=fixed;pointerEvents=1;shape=mxgraph.aws4.mobile_client;" parent="1" vertex="1">
          <mxGeometry x="59.5" y="410" width="41" height="78" as="geometry" />
        </mxCell>
        <mxCell id="glYZHmGPdBlqkJAoYOEJ-13" style="edgeStyle=orthogonalEdgeStyle;rounded=0;orthogonalLoop=1;jettySize=auto;html=1;exitX=0;exitY=0;exitDx=70;exitDy=80;exitPerimeter=0;entryX=0.5;entryY=0;entryDx=0;entryDy=0;entryPerimeter=0;shape=link;" parent="1" source="fBMlEVeHAcpWcudAE6il-17" target="glYZHmGPdBlqkJAoYOEJ-12" edge="1">
          <mxGeometry relative="1" as="geometry" />
        </mxCell>
        <mxCell id="xj_OzP7Cz5BRyPXDLLyR-2" style="edgeStyle=orthogonalEdgeStyle;rounded=0;orthogonalLoop=1;jettySize=auto;html=1;exitX=0;exitY=0;exitDx=50;exitDy=0;exitPerimeter=0;entryX=0;entryY=0;entryDx=0;entryDy=30;entryPerimeter=0;" parent="1" source="fBMlEVeHAcpWcudAE6il-17" target="fBMlEVeHAcpWcudAE6il-25" edge="1">
          <mxGeometry relative="1" as="geometry">
            <Array as="points">
              <mxPoint x="330" y="326" />
              <mxPoint x="330" y="270" />
              <mxPoint x="271" y="270" />
              <mxPoint x="271" y="30" />
            </Array>
          </mxGeometry>
        </mxCell>
        <mxCell id="zotO4yzmj4yLOStzKI4d-1" style="edgeStyle=orthogonalEdgeStyle;rounded=0;orthogonalLoop=1;jettySize=auto;html=1;exitX=0;exitY=0;exitDx=120;exitDy=50;exitPerimeter=0;entryX=0.003;entryY=0.493;entryDx=0;entryDy=0;entryPerimeter=0;" parent="1" source="fBMlEVeHAcpWcudAE6il-17" target="fBMlEVeHAcpWcudAE6il-2" edge="1">
          <mxGeometry relative="1" as="geometry" />
        </mxCell>
        <mxCell id="e7AcpeO70v1B4CvulHkZ-2" style="edgeStyle=orthogonalEdgeStyle;rounded=0;orthogonalLoop=1;jettySize=auto;html=1;exitX=0;exitY=0;exitDx=50;exitDy=0;exitPerimeter=0;entryX=0.75;entryY=0;entryDx=0;entryDy=0;" parent="1" source="fBMlEVeHAcpWcudAE6il-17" target="yq9Uw6k68tb3Hdlw_wv9-5" edge="1">
          <mxGeometry relative="1" as="geometry">
            <Array as="points">
              <mxPoint x="356" y="326" />
              <mxPoint x="356" y="271" />
            </Array>
          </mxGeometry>
        </mxCell>
        <mxCell id="fBMlEVeHAcpWcudAE6il-17" value="USER SERVICE" style="shape=cube;whiteSpace=wrap;html=1;boundedLbl=1;backgroundOutline=1;darkOpacity=0.05;darkOpacity2=0.1;" parent="1" vertex="1">
          <mxGeometry x="309" y="326" width="120" height="80" as="geometry" />
        </mxCell>
        <mxCell id="fBMlEVeHAcpWcudAE6il-25" value="TRANSACTION SERVICE" style="shape=cube;whiteSpace=wrap;html=1;boundedLbl=1;backgroundOutline=1;darkOpacity=0.05;darkOpacity2=0.1;" parent="1" vertex="1">
          <mxGeometry x="328" width="120" height="80" as="geometry" />
        </mxCell>
        <mxCell id="fBMlEVeHAcpWcudAE6il-34" value="" style="image;aspect=fixed;perimeter=ellipsePerimeter;html=1;align=center;shadow=0;dashed=0;fontColor=#4277BB;labelBackgroundColor=default;fontSize=12;spacingTop=3;image=img/lib/ibm/security/api_security.svg;" parent="1" vertex="1">
          <mxGeometry x="960" y="190" width="60" height="60" as="geometry" />
        </mxCell>
        <mxCell id="zotO4yzmj4yLOStzKI4d-2" style="edgeStyle=orthogonalEdgeStyle;rounded=0;orthogonalLoop=1;jettySize=auto;html=1;exitX=0.5;exitY=0;exitDx=0;exitDy=0;exitPerimeter=0;entryX=0;entryY=0;entryDx=70;entryDy=80;entryPerimeter=0;shape=link;" parent="1" source="fBMlEVeHAcpWcudAE6il-48" target="fBMlEVeHAcpWcudAE6il-2" edge="1">
          <mxGeometry relative="1" as="geometry" />
        </mxCell>
        <mxCell id="fBMlEVeHAcpWcudAE6il-48" value="MySql" style="verticalLabelPosition=bottom;html=1;verticalAlign=top;align=center;strokeColor=none;fillColor=#00BEF2;shape=mxgraph.azure.sql_database;direction=east;" parent="1" vertex="1">
          <mxGeometry x="606" y="470" width="48" height="65" as="geometry" />
        </mxCell>
        <mxCell id="fBMlEVeHAcpWcudAE6il-49" value="MongoDB" style="verticalLabelPosition=top;html=1;verticalAlign=bottom;align=center;strokeColor=none;fillColor=#00BEF2;shape=mxgraph.azure.sql_database;direction=east;labelPosition=center;" parent="1" vertex="1">
          <mxGeometry x="354" y="-90" width="48" height="65" as="geometry" />
        </mxCell>
        <mxCell id="fBMlEVeHAcpWcudAE6il-50" value="" style="shape=link;html=1;rounded=0;entryX=0.5;entryY=1;entryDx=0;entryDy=0;entryPerimeter=0;exitX=0;exitY=0;exitDx=50;exitDy=0;exitPerimeter=0;edgeStyle=orthogonalEdgeStyle;" parent="1" source="fBMlEVeHAcpWcudAE6il-25" target="fBMlEVeHAcpWcudAE6il-49" edge="1">
          <mxGeometry width="100" relative="1" as="geometry">
            <mxPoint x="650" as="sourcePoint" />
            <mxPoint x="610" y="-30" as="targetPoint" />
          </mxGeometry>
        </mxCell>
        <mxCell id="glYZHmGPdBlqkJAoYOEJ-12" value="MySql" style="verticalLabelPosition=bottom;html=1;verticalAlign=top;align=center;strokeColor=none;fillColor=#00BEF2;shape=mxgraph.azure.sql_database;direction=east;" parent="1" vertex="1">
          <mxGeometry x="355" y="470" width="48" height="65" as="geometry" />
        </mxCell>
        <mxCell id="yq9Uw6k68tb3Hdlw_wv9-6" value="" style="group" parent="1" vertex="1" connectable="0">
          <mxGeometry x="313" y="135" width="170" height="80" as="geometry" />
        </mxCell>
        <mxCell id="yq9Uw6k68tb3Hdlw_wv9-5" value="MESSAGE QUEUE" style="rounded=1;whiteSpace=wrap;html=1;direction=west;" parent="yq9Uw6k68tb3Hdlw_wv9-6" vertex="1">
          <mxGeometry width="170" height="80" as="geometry" />
        </mxCell>
        <mxCell id="yq9Uw6k68tb3Hdlw_wv9-3" value="" style="shape=image;aspect=fixed;image=data:image/png,iVBORw0KGgoAAAANSUhEUgAACgAAAAGSCAYAAAAv/ZhqAAAABGdBTUEAALGPC/xhBQAAACBjSFJNAAB6JgAAgIQAAPoAAACA6AAAdTAAAOpgAAA6mAAAF3CculE8AAAABmJLR0QA/wD/AP+gvaeTAACAAElEQVR42uzdeXyddZX48c/33jRtgbaUfVE2UcQFt4rgggZok5bNEVqdn+IgtDeAwyjjvoxGHZdxZEZlFJoCMu6moGAhTVogLCKLiLihggs7yF7WJk3u+f3R4CBr02Z5vs/9vF+vvoZx63nOeZ7v/T7Jud8DkiRJkiRJkiRJkiRJkiQpO8kUSJIkSZIkSZIkSZIkSSqbc845Z+bkyZOnDQ0NTYuI6dVqddrQ0NCMlNKMlFIFICJmPu6/UgWmAw8AQ8P/fr1Sqawa/uc1w//eqpTSfSmlByJiVXNz8wMtLS2rzbgmgg2AkiRJkiRJkiRJkiRJkrLR1dU1dcaMGc+LiOdFxI4ppa2B7VJKW0XEdsDWwFasbegbLw8Ct6aU/lqv129JKf01pXRLRNxar9evnzp16vUtLS0PWT2NNhsAJUmSJEmSJEmSJEmSJBXOsmXLtm9ubt4jIvYAdgOel1J6XkRsn+kl3Z5Sui4iro+I61JKv2hqavrF/vvvf4/V1vqyAVCSJEmSJEmSJEmSJEnShOru7n5epVJ5HfCKiNgjpfQyYPMGufybgF+klH4B/Ly5ufknLS0t93tXaF1scANgHM1WDLINVTamzsaFvdIK9zPEw/RzU/oWD1v68RM1ZpDYafj+2KjA98gAQzxMM7emr3OHlZMkSZIkSZIkSZIkSRp9fX19TY8++uisarW6d0S8HngtsI2Z+Zs68Cvgooi4aHBw8JKDDjrobtOipzLiBsA4ih2p8lYS+xLsCczM7JoDuBH4CUEPqznLhsBRTnCNGQSHUqGV4PXAdhlexgPA5SQuYJDvp1O50cpKWaw/GwH/bSYm6PM1uP8Ju4xBEg8SPEpiNbAKWEOdB6hwP8F9DHEfp3JfWvv5LElSsT/sFrI1FT5duMA25r3pv3nUCkkT+i6yLdBRuMAGeE86ndVWSCrYmrGII0m8JuuLSFyeFvMNqylJkiRpJFauXLlDvV5vA9oiYj9gullZ99dJ4BfAORFxTltb21UpJX/HquHX9HW9i47mTdT5CLA/UClRDh4icSpDfCmdwi3eEhuw0hzDLtT5MME7gKklurQ6sILE59NiLrbSUoHXoSPYlGbuMxNZuh+4E7iT4A7gdircCdwK3EKdG1nDTf7yUpI0we88uzHE7wsY2qapk1VWSJrA9WEhu1Ph2sIFNsj0dBoPWiGpYGtGjW8B78j8Mr6VOnmn1ZQ0El1dXc3Tp0//dCPnIKW0tLW19efeDdLo6+npOQB4Q6Nef71e/+S8efP6vRNUuPefiNTT07NXSulQYC7wIrMyam4Hzo2IZQ8++GDPggULBkxJ42p61odx7Yl/X6XOwSXNwSYE76FCLdr5HPfyxbQUH4qRLNjHM5VH+DeGeB/QXMJLrABtBG1R44fUeY/NopI06jYd/vOCv3094fHfV0lrP2Gixu3ATcANBNcDvweuYw3Xp9OfcAKhJEmSJEmSpMLYcsstm/v7+z/UyDmIiG2Bf/JukMbEvwMvb9SLX7NmzWcBGwBVGD09PS+OiPm9vb1vTyntakbGxLbAwpTSwunTp9/f09OzDPhma2vr+Z4M2HiesQEw2nkLwams/YV82U0l+AwzOTgW8tZ0Cn/x9liHF5Vj2I2H6QL2aJBLfgsV3hTtHJEWs8w7QJImZCO7LfCavzvHeG1z4J0kfkPwG+DXVPgVD/Pb9C0eNm2SJEmSJEmSCuCQ7u7uyZ7SJY2uFStWPL9er7/cTEgTa+XKlTsMDg4emVJ6O7BrSsmkjJ9NgcOBw3t7e//S09Pz7ZTSN1pbW+19ahBP2wAYi3g/wRcZwZjgkng1FS6PhcxLp+AR3M8gFvFahjgHmNlgl74ZwVlR4/jUyVe9EySpMLYi2BfYF1g7wH0q9ajxZ+AqEj8DrmINv3AMmiRJkiRJkqQJMKNarc4GzjEV0uiJiAVmQZoYXV1d1enTp7eklGpDQ0P/kFJqMisTbmfg3yLiYz09PRdEROeUKVN+1NLSMmhqyuspH7yo8UHgPxo4L1tR4fxo541pMb/0NnnKe+Q1QC+wSYOmoAJ8JRaR0hK+4h0hSYVer3cFdiV42/Dupx41fk9wGRUuJnFxOpkbTJUkSZIkSZKksRYR87EBUBrt5+owsyCNrxUrVmxXr9ffDRwJbBPhxNkCqgD7p5T27+/vv3H58uWLU0qL29ra7jU15Sz23384LuJtwBdMDTMIlkeNbU3FE+6Ro9hx+MVkk4ZPRuK/osabvSskKbv9z4tIHEXwv9T5S9S4KWp8K9o5Ko5me1MkSZIkSZIkaYy8ua+vb4ppkEbHueee+wLg5WZCGh89PT0vW758+eJ6vf4n4KPANmYlCzumlD4H3NTb2/uV3t7e55qScvm7BsA4il1JdNJ4Y3+fzrYkvh0dT26UbFTRQRNVvgdsYTb+9gx9Y7gpUpKUr+cC7yA4hTq3RI1rop3PxULeEB14VLkkSZIkSZKk0TJ9YGBgf9MgjY6mpqb5ZkEae8uXL5+3fPny84FrUko1wGb2PG0cEf8SEX/s6ek5dfny5buZknL4+8a2KicB00zL4wT7chtHmohht3EssLeJ+DubUuVE0yBJpfIygo9Q4WJu469R47Ropy1qTDI1kiRJkiRJkjbE8BhgSaPzPC0wC9LY6enp2b+np+eKlNK5KaV9zUhpNANHppSu7e3t7eru7n6eKcnb3xoAo52DAL9t8tQ+F4ezccNvnmrMAD7l7fCUDopFPj+SVFKbAe8iWA7cHos4JdqZ7QnBkiRJkiRJktaTY4ClUTA8/ncPMyGNvsca/4CVwJ5mpLQqETG/Uqn8bvny5YvPPfdcRzrnWsjH/fNHTcfT2pKNaG/4LATHApt6OzyNxMdNgiSV3uYkjiJYwW3cEO18Ko5mJ9MiSZIkSZIkaQSmDwwMzDYN0oZx/K80+lasWPG6np6ey7Hxr9FMSinVqtXq9T09PZ/o6uqaakryUgGIRbycYC/T8QyCWmNfPonEIm+EZ/TGOAbno0tS43guwSeo86eosTLaeasjgiVJkiRJkiSti4g4zCxIG/wcOf5XGiUrV67coaen55v1ev0S4DVmpGFtAnxq+vTp1/X09LzTdORj7QmAiX80Fc9qt6jxyoa9+kXsDezsbfAshnibSZCkhtxP7U/wfeBPUeODcQwzTYskSZIkSZKkZ3BId3f3ZNMgrZ/ly5fvhuN/pQ22cuXKGT09PV8aGhq6HjgcSGZFwHOA/+3p6Vk+PG5dBffYCOD9TcU6adw8Jfaz/Osg8Lh2SWpszwX+gyFujna+FkexqymRJEmSJEmS9BRmVKvVOaZBWm+O/5U20PLly982NDT0O+B9QLMZ0VNoq1arv1q+fPnHr7rqKiehFVgljmcq8DJTsU72btgrd0T0uknMig6aTIQkNbyNCY6lyu+ixuk2AkqSJEmSJEl6IscAS+uvUqk4/ldaT+edd94uPT09y1NK3wO2NSN6FpNTSp+55557fr5ixYpZpqOgn4s8yPOBqqlYJy9s2CtPDXztI1z4uN1RyZKkv2kC/okqv4tF/G+083xTIkmSJEmSJGmYY4Cl9bB8+fLdIuKlZkIamb6+vqaenp6PDg0N/QZoMyMaiYh4ab1e/2lvb+9n3L8UT4VkN+8IbOu1y1xJktZDE4l3ElwbizgpjmYrUyJJkiRJkiQ1vBnVanW2aZBGJqX0VrMgjUxvb+/O/f39FwCfjYipZkTraVJEfLxSqfy8t7f3JaajOCrAJqZhnW0SkBrtomM+VcAPgHVOGNNMgiTpaTSROJo610eND8cRTDElkiRJkiRJUuOKiPlmQRoxnxtp3T9nUm9vby0ifgW8wYxolLwYuLKnp+c9pqIYKsAk07DOqsyn0nBXvQ1Nln5EfKYkSc9mOvB5mvl91PxBhSRJkiRJktTAHAMsjUBvb+8LAU+dktbBeeedt3Vvb+/yiFiMh4NplA2fJPnlnp6e73R3d083IxOrYgokSZImzI5AVyzi3DianUyHJEmSJEmS1HBmVKvVOaZBWjeemimtm56enjcMDg5eDbSaDY2x/1epVH62cuXK3U3FxLEBUJIkaaIl5lHn2qjREfNpNiGSJEmSJElS47ChSRqRBaZAesbPlDQ8lvV8YDszonHygqGhoSuXL1/+FlMxMWwAlCRJKoapwCeZyWWxEL8hI0mSJEmSJDWOgx0DLD274dOlHP8rPf0zMqO3t/cs4MvAJDOicbZJSumM3t7eT0ZEMh3jywZASZKkYnklFa6ORbwnwM2xJEmSJEmSVH6OAZbWwdDQkKdlSk+jt7d356GhoZ8CB5sNTaAUER29vb1ndHV1TTUd48cGQEmSpOKZQuLLtLM8amxrOiRJkiRJkqRycwywtE4c/ys9he7u7r0i4jLgRWZDBfGW6dOnX9jd3b2lqRgfNgBKkiQVVdAKXBXt7G0yJEmSJEmSpFI7pK+vb4ppkJ5ab2/vC4EXmwnpSc/GYdVq9QJga7OhgtmzUqlctmLFiuebirFnA6AkSVKxbUfQFzUWmgpJkiRJkiSptKYPDAzMNg3S03qrKZD+Xk9Pz/sioisiHLWqonpevV6/uKen55WmYmzZAChJklR8k4ElUWNxzKfZdEiSJEmSJEnl4xhg6RmfD8f/So/T09PzIeBLQDIbKrhtgAuWL1/uxLMxZAOgJElSPmrMpCdqzDAVkiRJkiRJUuk4Blh6CsPjf19kJiSIiNTT0/Nl4AtmQxmZkVJauXz58jeZirFhA6AkSVJeWoCfxNFsbyokSZIkSZKkUnEMsPTUHP8rAX19fU09PT3fBd5jNpShjVNKy3p7e/cxFaPPBkBJkqT8vIQ6l0Q7zzcVkiRJkiRJUnk4BljyuZCeSldXV7W/v//bKaW3mQ1lbJOI6LYJcPTZAChJkpSnnQkujnZeZiokSZIkSZKk0nAMsPQ4vb29LwFebCbUyLq6uqozZsw4HU/DVDlsHBHLent7X2UqRk+TKZAkScrWNgTnxdG0pJP5jemQJEmSJEmSsvfYGOBlpkKCer1+WErJRKhhdXR0VKZPn35aRLzDbKy3O4AbU0o31ev1W1JKdwP3PvYnpXQfQLVave9x/51VwAyA/v7+pqampmkRUU0pbV6v1zdPKW0ObA5sC+wM7AI8F/uw1nm/ExHLly9f/oa5c+f+wXRsOG88SZKkvG1BnfOjnZa0mGtNhyRJkiRJkpS34XGnNgBKQErJ8b9q5M+D1NvbezLwTrOxTm4AfgX8GvhVvV7/zdSpU//c0tKyej3/9+4ZyX+4r6+vaWhoaIehoaE9IuIVEfGKlNIrgOdYmqe0ZUpp5cqVK18/e/bsm0zHhrEBUJIkKX9bEayIo3hTOpU/mg5JkiRJklQUcTTbE2yRFvNLsyGts4O7u7snz5s3r99UqJH19PS8GHiRmVCjWrFixaeBRWbiKQ1GxDUppZ9ExCWTJk26dP/99//rRAbU0tIyCPx5+M9Zj/3r3d3dz6lUKi3AvkALsKPl+5vnDg0N9Z5zzjmvPfDAA+8zHevPBkBJkqRy2J4q58WRvDadxm2mQ5IkSZIkTaTooMKtHE2dz5N4L9gAKI3AjGq1OgdPAZQWmAI1quXLlx8bER83E39nFdAD/HhwcHB5Lg1j8+bNuwX41vAfent7XwgcGhGHAS+3rLywWq2ecdVVV7XNmjVrjelYPzYASpIklceONLEsjuWN6es8ZDokSZIkSdJEiHaez20sJtFiNqT1fI4cAywBOP5XDam3t/ewiDjRTEBK6dGI+FFEfHPLLbe8oAwNYq2trb8HPgt8tqenZ1fgH1l70uNzG7jO+95zzz0nAQu969ePDYCSJE2M26ny4gmPYg2bMon0lP/eEIk6mw7vGKYwxNThf2cGiQowicQmwGRgI2AGwRRgY4JpVJhCMI3EJgQzgBnApsP/WY2dVzLId2I+b0lLGTIdkiRJkiRpvMQRTGESHyP4INBsRqQN4hhgNbTe3t6XRMTuZkINeO+/NiK+DVQaPBVXAKdWKpWu2bNnryrrRba1tf0R+ExXV9fnZsyYMQ84OiLaGrH+EXFUT0/PdW1tbV90JRg5GwAlSZoY9XQSRTiWetxjiPk0swkzaGbT4QbDGVTYnGBLYCtga4KtSewA7AzDTYgaiYPZjBOA95oKSZIkSZI0HmIRbyTRCbzAbEijwjHAauzPlbWnYEoNZeXKlTsMDQ39kLWHbzSiOrAsIr40d+7cnzTShS9YsGBo+DN/WXd394sqlcrHgLcC1Qa7Bz7f09Pz27a2tnNdEUbGBkBJkjSu0lIGgLuG/zz7S/4xzGSInQleQOKlBC8m8RJgF3ia0wsFwXtiEb9KSzjNZEiSJEmSpLESxzCTQf6TxJH4sxppdJ8vxwCrsdkAqIbS29u78dDQ0FnA1g14+UMR8e1KpfKF4fG4DW3evHnXAm9fvnz5pyuVyscj4v/ROCcCVoBvnXfeebP233//P7syjCxxkiRJhZVO4r7UydVpCd9PnXwsLeHNqZNdgZlAK/AJ4FzgfrP1xOTxP7GQPUyEJEmSJEkaC7GItzHE70gchc1/0lg4pK+vb4ppUKNZvnz5HoDjf9U4e6qIFBGnAq9otEsHzomIV86dO/cIm//+3ty5c//Q2tp6OPBq4OIGuvSZg4ODP1q2bNlG3gXrzhMAJUlSllInq4AVw3+I+VTZnFdRZ19gf+ANQHODp2kqFZbGkcxKp/Ggd40kSZIkSRoNcRQ7UuHrJOaZDWlMTR8YGJiNpwCqwaSUDjMLaiQrVqz4KGvHvTaSCyuVyvFz5sy5xjvgmbW1tV0dEW/q7e2dD3wJeG4DXPYekyZN+hrwLu+AdeMJgJIkqRw/EFjKUDqZK1MnX0id7A9sReL/keiChm5+ewGTOMU7RJIkSZIkbaiYTzVqHE+V39j8J43Tc7d2DLDUaLzv1TB6enpaIuJTDXTJt0TEP7a1tbXY/LfuUkrR1tbW1d/f/+KU0teBegNc9hE9PT02AK4jGwAlSVI5N8KdrEqL+V5azFvZmK1JvI21o4IHGy4ZwYJo5yjvCkmSJEmStL5iES9nJpcD/wVsYkakcXNwd3f3ZNOgRnHuuee+FHihmVCD3O/bAN8Fqg1wuUPACSmlF86dO/f7Vn/9HHLIIQ+2tra+OyLeCPyhAS75qz09Pbta+WdnA6AkSSq99N88mhbzg9TJgVTYHvgQcENDJSE4IY5tiCPBJUmSJEnSKIoaG0WNL5L4GTDLjEjjbka1Wp1jGtQompqaFpgFNYKOjo5KtVr9JrBNA1zun1JK+7a1tb2/tbX1Yau/4ebOnfuTyZMnvzyl9NWSX+omwPevuuqqSVb9mdkAKEmSGko6mTtTJ1/kPnYlOAQ4v0EufQZDLAlI3gWSJEmSJGldRI05wK+BDwBNZkSaoGfRMcDyfpdK5zWvec0ngNklv8x6Suk/J0+e/JLW1taLrfroamlpWd3a2voe4DDgvhJf6qvuvvvuT1rxZ2YDoCRJakhpKUNpCT9OnexP4rUkzgGi1BcdtFJzFLAkSZIkSXpmcQwzo8ZioAfYxYxIE84xwGoIy5cv3wPYzUyo7Hp6evZMKX2s5Jd5Z6VSmdva2vrBlpaW1VZ97LS1tZ1ZrVZfDlxd4sv88IoVK15ntZ+eDYCSJKnhpcVclhZzEHVeC/y05Jd7QtTY1qpLkiRJkqQnCkhR458Y4nqghpMEpKJwDLAaQkrJ8b8qvWXLlm0EfJMSn66cUrqoUqm8Ys6cOSus+PiYPXv2TZMnT34dcHpJL7Far9dP6+vrm2K1n5oNgJIkSY+9kJzC5XTyemABcHNJL3M6wRestiRJkiRJerw4hl2o0cPaXxpubkbUUPd/xBtSSvMKHqNjUdUIDitqYCmlDwBvtUTaUE1NTV+g3CddnrBq1ar95syZc5vVHl8tLS2r29ra3jW8XtVLeIkv6O/v/zcr/dRsAJQkSXr8SzxE6mQpk3kJcEpJL/LwWMheVluSJEmSJEWNSVHjwwzxG8ATxtSwNt988/OAewscomOAVWo9PT0vo7hNUTE4OLjUKmlDLV++fL+U0j+X9PL6I+JdbW1t71+wYMGQ1Z44ra2tX4qItwH9Jby8D6xYseLlVvnJmkyBJEnSk6UTeQBYFItYRmIJsFWZLo8KX40O9kodpfwGkCRJkiQV2W+B8zJ/q/ytZSyHOJo9qbME2MNsqNHNmjVrTU9Pz9nAuwoa4mNjgJdZLZVUkU+5vPKAAw64saen5zWWSeurq6trakppMZBKeHl3VyqVN8+ZM+dSK10Mc+fOXdrd3X1npVI5C9i0RJc2qV6vn9LX17dXS0vLoJX+PzYASpIkPYO0hB/H0VxOne8C+5Xo0l7N7fwT8A2rLEmSJEnj+J7ZyReAL5gJTaQ4kmk08e/UeTdQNSPS8Bqd0tKIeFdhn921Y4BtAFRZFbkB0NP/tMFmzJjxbxHxvBJe2s0ppTlz5sz5vVUulnnz5l20fPnyN6aUzgO2LNGlvaq/v/9o4H+s8v9xBLAkSdKzSCdzJ/fRSvAfpbqwoCOOw7EhkiRJkiQ1kKhxAE38GvgXbP6T/k4GY4AP6evrm2KlVDbD4xxfUNSPzqGhoTOskjZEb2/vSyLi/SW8tN9Xq9XXt7a22vxXUHPnzv1VSmkf4I6SXdqnu7u7t7TC/8cGQEmSpHWQljKUlvBhgncBAyW5rB3o50irK0mSJElS+UWNbaNGF3AOsKMZkZ5s1qxZa4CzChzi9IGBgdlWSmVTr9cLe/pfSumKAw444EarpPXV0dFRiYjFwKSSXdqv6vX6PrNnz77JKhdba2vr71NKs4E7S3RZMyuVymet7v+xAVCSJGkkL/tLOJ3gzcAjJbmkj8fxTLWykiRJkiSVU0CKdt4J/Jpij1eUiqLQoz6HxwBLZVPY+7perzv+Vxtk7733PgJ4bcku67f1en3/efPm3WWF89Da2vobYA6wqkSXddSKFStmWd21bACUJEkaobSE5dRpK8kmeTse5iirKkmSJElS+cRR7Eo75xH8L7C5GZGe3RZbbHE+xR4DfHB3d/dkK6WyGB7/+/yifpQ2NTU5/lfrra+vb5OI+PeSXdYfhoaGbP7LUFtb2y8j4s3A6pJcUmVoaOjLVnY4GaZAkiRp5NIpXAK0Ag+V4HI+EvNptqqSJEmSJJVDHMfkqPFJqvyGYF8zIq27DMYAz6hWq3OslMqiyON/gcsdb6oNMTAw8CFg2xJd0s1r1qzZ74ADDrjD6uZp7ty5FwLvAIbKcD0ppdf19PQcYmVtAJQkSVr/TWUnV1DnEKA/80vZjk15ixWVJEmSJCl/cTSvo5+rgQ7AU8Kk9eMYYGn8FPZ+Tik5/lfrbeXKlTsA7yvRJa1KKc076KCDbrW6eWtrazszpfThEl3S57q6uqqNXlcbACVJkjbkBwCncAHBO4F65rvCY62mJEmSJEklUGcx8CITIa0/xwBL46O7u/sVFHj8L+D4X623wcHBz0XE1JJczkBEHNra2vobK1sOra2tX0opfbskl/OiGTNm/FOj19QGQEmSpA2UltAFfCLriwjeEAvZw2pKkiRJkiSp0TkGWBof1Wq1yKdZXtba2nqzVdL66OnpeXFK6R/Lcj0RcezcuXPPt7LlsmrVqlpEXFWSe7Sjr69vSiPX0wZASZKk0dDJ5yj4aJB12BkebSElSZIkSZIkwDHAUqPfx47/1Yb4BCXpx0kpLZ47d+6plrR8FixY8GhTU9OhwH0luJznrl69utbI9bQBUJIkaTRegCCYzELg9xlfxuFxOBtbTUmSJEmSJDW64THA9xQ4xEMa/aQb5a2np+eVwK4FDS9SSmdaJa3nvf1i4LAyXEtK6fKhoaH3WNXymj179k0RsbAk9+sHurq6mhu1ljYASpIkjdbG8kQeoML/A9ZkegmbMJV5VlKSJEmSJEmNbtasWWtSSmcVOMTpAwMDs62UclXk0/8i4qeO/9X6Sil9knL04tw1MDBw2Lx58/qtarnNnTv3hymlxSW4lOfMmDHjHY1aRxsAJUmSRvPF7mR+AXw240twdIgkSZIkSZIE1Ot1xwBLYySlNL/AsTn+V+ult7f3JRFxaAkuJSLiiIMOOuhWq9oYVq1adTzwuxLcuB/q6uqqNmINbQCUJEkafZ8j8fNMYz/AMcCSJEmSJEkSTJky5XzgrgKH6BhgZam3t/dVwPMKGl59zZo1Z1glrdfNU6+X5fS/r8ydO7fbijaOBQsWPAq8g3ynnD3mBTNmzDisEWtoA6AkSdIoS52sIagB9QzD38gxwJIkSZIkSRK0tLQMppR+XOAQHQOsLNXr9SI3Z/zUU8+0Ps4999yXppTeUoJLuaZer3/Yijaetra2qyPihNyvIyI+EhGp0epnA6AkSdIYSJ1cDXw3z+A5zApKkiRJkiRJjgGWxkKRx/9GhON/tV4qlconyL8Hpz+ldPi8efP6rWhjiogO4NrML+NlK1asOKDh1iBvX0mSpDHbaX0YeDi/3T1zYj5VCyhJkiRJkqRG5xhgaXStWLFiFgUe/zs4OHimVdJI9fT0vLgkp/99urW19TdWtHENN3++izynnP1NRHy80WpnA6AkSdIYSSdzK8H/ZBj6pszg5VZQkiRJkiRJja6lpWUQOLvAIToGWFkp+PjfSx3/q/VUhtP/fj558uQvWkq1tbVdCZyW+WW8pqenp6WR6mYDoCRJ0lga4qvAQIa7xH0tniRJkiRJkgSVSsUxwFID3K8pJcf/asSWL1++E5D76X9rhoaG3jXc9C7R1NT0YeDuzC/jIw21X/W2lSRJGjvpNG4j+H6GodsAKEmSJEmSJAGbbbZZH3BPgUM8uLu7e7KVUtH19va+KqW0S0HDq6eUHP+rEUspvRdoyvwyvnrAAQf82mrqMfvvv/89EfHhzC9jdm9v70sapWY2AEqSJI352x9fAiKzqPeJ4/CHhpIkSZIkSWp4s2bNWgP8qMAhzqhWq3OslIouIhYUNbaU0iVz5sy5zSppJM4555yZwFGZX8bt9Xr901ZTT3TFFVd8A/h5ztdQr9ePa5R62QAoSZI0xlInvyZxRWZhb8SjvMLqSZIkSZIkSY4BlkbhHk0RcViB4zvDKmmkmpqaasAmmT+b75k3b94DVlNP1NHRUU8pfTDna0gpvaOnp2ezhtirestKkiSNxxsU38twp2gDoCRJkiRJkgRMmjTpAuDuAofoGGAV2sqVKws9/hdw/K9GpK+vrwn455yvIaV00dy5c5daTT2d1tbWC4AfZ3wJG0XEUY1QKxsAJUmSxmfX9X1gMK83PxsAJUmSJEmSJICWlpZB4KwCh+gYYBVavV4v7CmVKaVL2trabrdKGonVq1cfDDwn58cypfR+K6l1WL8/AgzlGn9K6diurq5q2etkA6AkSdJ4bC5P5k7gwqyCDhsAJUmSJEmSpMc4BljaoPuzsON/6/V6lxXSSKWU/jnzS/jOnDlzrrKSejbz5s27NiK+n/El7DRjxozSf0nCBkBJkqTxEvwos4hfEjUmWThJkiRJkiTJMcDS+lq+fPmrCzz+d6her//QKmkkVq5cuTvwpowvYXW1Wv24ldS6qlarnyK3SWePExG1stfIBkBJkqTx0sT5mUU8hTq7WzhJkiRJkiTpb2OAi/wlX8cAq5AqlUqRT6e85IADDrjDKmkkBgcHjwFSxpdwyuzZs2+yklpXc+bMuR74VsaXcGBPT8+2pf6s9TaVJEkaH+kk/gDcnFXQVRsAJUmSJEmSpMeklBwDLI3snkxFvi8jYqlV0kgsW7Zso5TSOzO+hNWVSuXzVlIjNTQ09AWgnmn4TcC7ylwfGwAlSZLGU8rsFMBgZ4smSZIkSZIkrdXc3NyHY4ClddbT0zML2Kmg4Tn+VyM2adKkQ4EZucafUuqcM2fObVZSI3XAAQdcR7FPQn5GEXFURKSy1scGQEmSpPFU54K83gTZxaJJkiRJkiRJazkGWBqxBQWO7WLH/2o9HJlx7P0ppf+whFpfEZHt/ZNS2qWnp+d1Za2NDYCSJEnjujPmqszi9QRASZIkSZIk6XEcAyyt872YUkqH+SyrLHp6enYF3pjxJXzX0/+0IebOnfszoC/jPdzbylobGwAlSZLG0yquAx7OKGJPAJQkSZIkSZIeZ9WqVRcAdxY4xEP6+vqmWClNtBUrVuxJgcf/VqtVx/9qpN4F5DpCNIATLKE2+EaK+J+Mw19w1VVXTSpjXWwAlCRJGkdpKUMkfp1RyDtEB01WTpIkSZIkSVprwYIFQ8DZBQ5x+sDAwGwrpYlWr9cLe/pfRFy0//77/9UqaV11dHRUgHfmGn9KaXlbW9tvraQ21JQpU34M3Jxp+Fvefffd+5WxLjYASpIkjb+rM4q1iTvY2pJJkiRJkiRJf6eryME5BlgFuAdTSqmw96HjfzVSr3nNa/YBnpNr/Cmlr1hFjYaWlpbBiOjM+BL+sYx1sQFQkiRpvAW/ySreQTa3aJIkSZIkSdL/mTx58oXAXQUO8eDu7u7JVkoTZXj8744FDW8opeT4X41Uzk1Df/rpT396niXUaKnX66cAazIN/81dXV1Ty1YTGwAlSZLGW+Ivme0YbQCUJEmSJEmSHmf49JsfFTjEGdVqdY6V0kSJiAUFDq+vtbX1TqukddXV1dWcUjo040vo7OjoqFtJjZYDDjjgjojoyTT86dOmTTuwbDWxAVCSJGn8d2B/ySziLSyaJEmSJEmS9PeKPkLUMcCawHsvAYf67Kospk+fPheyPSxhIKV0ulXUGKyl/5tr7JVKpXRjgG0AlCRJGm+PciOQzzetkicASpIkSZIkSU/kGGDpqRV8/O/g0NDQj6ySRiIi3pZx+Od44qXGwgMPPLAMuCfTZ3puX1/fpmWqhw2AkiRJ4yydzmrg9nx2wTYASpIkSZIkSU/kGGDpqRV8/O9F8+bNu8sqaV319fVNSSkdkPHz+G2rqLGwYMGCgZTSDzINf0p/f/8/lKkeNgBKkiRNjJsyinWm5ZIkSZIkSZKezDHA0pPuuUKP/wV+YJU0EqtXr54DTMs0/PsiotsqaqzU6/VsR6pHhA2AkiRJ2kApoyOxg2YLJkmSJEmSJD3ZAw880AcUebTim/v6+qZYKY2Xnp6evSjw+N+U0tlWSSP0llwDTyl1zZs3r98SaqxcccUVF5PT1LPHqVQq+3d1dU0tSy1sAJQkSZoIkVEDYLIBUJIkSZIkSXoqCxYsGEopFXkM8LSBgYHZVkrjqLCnTkbEBa2trXdaIq2rq666alJK6aBc44+I71hFjaWOjo46cFamz8fU6dOnv7EstbABUJIkaWLcm02kicmWS5IkSZIkSXpqRR9/5xhgjeO9llJKhR3/m1I6wyppJO6+++43AptlGv4Nra2tP7GKcm19xs+teWWpgw2AkiRJE8MRwJIkSZIkSVIJPPjggxfiGGCJFStW7A3sUNDwBuv1+llWSSOR8+l/wHdSSmEVNdZWrVp1UcH3Qc/0jB9YljrYAChJkjQx7s0oVk8AlCRJkiRJkp6GY4CltQp+2uT58+bNu8sqaYT3dM6ng33PCmq89kERcVam4e+8fPny3cpQBxsAJUmSJuStkUczitYTACVJkiRJkqRn4BhgNbqISMChBQ7R8b8akRUrVjwf2DXT8H/Z1tb2W6uo8VKpVHJeYw8oRQ28DSVJkibEGlMgSZIkSZIklUMGY4AP7u7udtKHxkxPT89ewHMLGt6apqamH1kljUS9Xs/29L+MT2NTppqbm/uAe3KMPaU0rww1sAFQkiRpQnaTDGQU66AFkyRJkiRJkp7eggULhoAfFjjEGdVqdY6V0lhJKS0ocHgX7L///vdYJY1EzuN/q9XqWVZQ46mlpWUQ6M00/H1Wrlw5I/ca2AAoSZI0IW+O9GcUqw2AkiRJkiRJ0rOIiDMKHp9jgDVW91YCDitwfEutkkair69vSkppn0zDv2n27Nm/tIoabyml7kxDnzQ4OLhf7vm3AVCSJGlidmH5nABoA6AkSZIkSZL0rBwDrEa1YsWKvYHnFDS8NZMmTTrLKmkk+vv79wamZBr+j1NKYRU13oaGhlYA9RxjTynNzT3/NgBKkiRN0D44n12vDYCSJEmSJEnSs3EMsBpVRBR5/O/5jv/VemjJ+Hk8y/JpIsybN+8u4KpMw39T7vm3AVCSJGli5PPNscRqyyVJkiRJkiQ9u5RSoUeNOgZYY3BPJeAtPpMqmTdlGveqBx988BLLpwn8TFieaei7rlixYrucc28DoCRJ0sTIZ9RG8JDlkiRJkiRJkp7dqlWrLgL+WuAQ39zX1zfFSmm09PT0vA54bkHDW+NpaBqpZcuWbQTsmWPsEXHOggULBqyiJkqlUsm1AZB6vf76rHPv7SdJkjQRb2E0ZxStDYCSJEmSJEnSOhgeA/yjAoc4bWBgYLaV0mhJKR1W4PDOb2tru9cqaSSampr2JqdDHB6nUqkss4KaSJdddtnPgLszDX+fnHNvA6AkSdJESBm9PCYetmCSJEmSJEnSunEMsBpFR0dHpeANgF1WSeuxhrdkGnp9YGDgfCuoCf5cqAMrMg3/DTnn3gZASZKkiZDTCYBhA6AkSZIkSZK0rjIYA3xwd3f3ZCulDfXa175274jYvqDhrQHOtkoaqYh4U6ahX3PQQQfdbQU10VJKuTYAvuScc86ZmWvebQCUJEmakN0vG+fztst9FkySJEmSJElaN8NjgH9Y4BBnVKvVOVZKGyoiFhQ1tpTSSsf/aqSWLVu2UUrp1TnGnlLy9D8VQrVavSTT0CuTJk16Xa55twFQkiRpYmyRz1sjd1kuSZIkSZIkaUQcA6xS6+joqACHFjW+er2+1CpppCZPnvx6yGiC09/f8zYAqhD233//PwM35xh7RGQ7BtgGQEmSpAnZQbJlRjtGGwAlSZIkSZKkEbj88ssvAm4vcIhv7uvrm2KltL722muv1xV5/G9K6cdWSSOV8fjfgUql8hMrqALJ9X60AVCSJEkjks8JgBXutlySJEmSJEnSuuvo6KgDZxU4xGkDAwOzrZTWV0rpsALH5vhfrZd6vb5PpqFf3tra+rAVVIFcnGncs5YtW7ZRjoHbAChJkjQREptnE+tkGwAlSZIkSZKk9eAYYJVSR0dHJSIOK3CIXVZJI9XX19dUqVRemWn4jv9VodTr9VwbACdNmjTpNTkGbgOgJEnSRMhnBPC96b951IJJkrL9yJ1P1SxIcn2QJEkTwTHAKqu999779cB2BQ1vYM2aNY7/1Yg9+uijL42IqTnGnlI6zwqqSObOnfs74K4cY4+IWTnG3eRtJ0mSNM4bR0jAjpmEe7MV04ju72OYyRBbU2dLEluR2AbYksSWwLYEW5KYSrARMJm1z8Omw//1x/61J3oIWAPUgVXAI8Cjw//8EME9JO4C7ia4B7ibxI1UuSWdxH1WRSrRGnMk06jyQuA5JJ4LbM/aXzjsAGwFNAPTWPvzjumwtrknan/7nxgCHgBWA/c/7s/dwK0kbgNuAm6lmevSiTxg1qWM1odmdmeI7ddzfRgEHnzK9SFxC2t/cX8TQ9zCVK53fZAkSeuio6Oj3tPTcxZwTEFDnLZ69eo5gM1SGpF6vX5YSqmo4a088MAD/ZmgRqxarb46InIM/ZHNN9/8Z1ZQRZJSip6enkuBN2cYfpYngdoAKEmSNN4Wsj2Qy7fIbrJgeqI4kmlUeAGJ5w//2Y3gBcDzGRpu5nviWePxNP+8bjZ53D8/eXx2epp/HoKo8fDwfXwjcN3wn+upcB0nc2Nan2gkjc9aczQ7EbySYA/gpcDLgF2e8KSPVBWYOfzP2z75L33cP/dD1LgV+D2JP1Dn5yR+xn1cm5YyZIWkgqwPiT0IXgbsTJ20AStE09OuD49fGypPWB/g9wRXuz5IkqRnsJTiNgCSUjoMGwA1Ah0dHZWU0qEFDtHxv1q/d82IV2ca9y9mzZq1xgqqgHuMiyPizRnGbQOgJEmS1mkHtiv1XHa5ngDY6GIhz6HKntTZkwqvJtidZ/qlePFsDOw+/Kftb/9qHajxYMAvgWtIXEPiarbh16mDQSsvTcB6cyTbMYl9CfYF9qVeiNNytwe2J9jvb01FM3k42rmaOhcB53E/l6WlDFhBaYLWh5jg9YEnrA81fg5cROI87uVy1wdJknT55ZdftNdee93OU30JqRje3NfXN6WlpWW11dK62HvvvV8fEYUd/zs4OLjMKml9pJRek+MJgCmly62eCnpvXpnpqZrPX7ly5YzZs2evyiloGwAlSZLGW51ds4k1uNGCNY44gk2ZzKsJ9iR4NYk9WTu2d+15W+U7K28a8Hrg9cTw9d3GQ1HjcuBSgp+Q+Gnq5BHvDmksPmJILGJvEvOBVmD3TNaZjQneQOINwMeZySNR42ISZ1PlrPR17rC60gauDx1UuIO9qXMYaxv4X5jN+gD7APsQ/NtwQ+DFwNnUOSudwl+triRJjaejo6Pe29v7o4g4tqAhOgZYI9uvR8wvcGy9jv/V+li2bNlGEbF7ps/kFVZQRdTf3/+LSZMmDbF2KktO0po1a14OXJRT0DYASpIkjb/n5bPF5Q+Wq7ziGGZSZx+ghaAFeCkxfIZNati0bALsD+w/nIPVw409vUBPWsy13jnSBqw7jzX1BPMJDgWeU4LL2ghoI2hjkK9FO5cCSxnkO+lU7rXq0gjWh9t4LYnDuI3DWHu6Xu42BuYCc6nwtagNrw9VvpNOwl9KSpLUQOr1+tKUUlEbAKlUKvOxAVDroKOjowK8pajxpZSWWiWtj+bm5lkRkWX/TFNTkw2AKqSDDjrokZ6enutYO6EpK9Vq9ZXYAChJkqRnFOyRTXNV2ABYutuvnRcBB1HnIIbYi/y+eTXepgBzCOYAJ0SNPwNnEJzBEq5KZTwXURqLtWchW1NlEbdRA55b4kutELwBeANVvhg1fgicQicXul5IT7M+HMs2rKHGbSwCnlPiJ6XKY6cDDvGf0c6ZJE7hZC5yfdDfnoca21JlaqGCepR70+ncb3WG16uBbJqTpxYvgewYC3mVd9KTdo8DqZNfm4jyu+KKKy4u8hjgiDjEMcBaF3vuuecbgKKO/+2vVqs2smq9b+9M475z9uzZN1k+FVVK6eeZnq75ytwCtgFQkiRp3He7zMok0jXAnyxY/mIRLybxj8BbieER1Mm8rKddgA+S+CA1bgj4PonT0mKuNzXSU6w/7exN8M/AYQTNDXb5U4D/B/w/avw2gv9iCt9JJ9LvnSFBLOK1wD8zyKGkBlwfgrcTvJ0av43ECTTzXdcHAd9kiP0LFVEzHwM+Z2mANbyLirnYAJ+kwidNw5PcBOxoGsrPMcAqi+HTIouqd/bs2ausktbrHTXi1ZmGfrnVU8GfrZ8D78gw7uwaACvebpIkSeO4YayxA7BVJuH+OXWyxqpleq8dyzbRzoeixq9I/Ab4GAw3/2m07AR8mOAPUeOiaOedcXwBT9qQxnv9gRTtvCXauYrgp6xtgmtu8LS8mMSp9HNDLOIjcSTTvFPUsOtDjflR42oSlw5/QcH1ITiNfv4SNT4cx7KJd4okSeVUr9cLPZq04I1dKoCij/+NCMf/akPk2gDo+F8V3c8zjfuFfX19Wf2MxgZASZKk8RQZvUQmfmnBcru9SLGI/aNGF4PcRPAF4KVmZhyeFtiH4H95mBtjEV+IIws7CkUa23VoEftT40qCMwlHvD2FbUh8jib+EjU64jimmxI12PpwFdAFvMKMPMm2wOcZ5Iao0WGjsCRJ5fPggw9eAtxR2P1axEHd3d2TrZSezvD4320LGl5/U1PTMquk9XHeeedtDuycafhXWkEVWX9//zVAPcPQK2vWrHlZVgF7u0mSJI2jfMb/Qp1rLFge4nimRjtHU+P3JFYC84FJZmZCbEniQzTxp6ixOI5mJ1OihliH2pkd7Vw2vAbNMiPPanPgk/Tzh6jRHvOpmhKVdn1YRGvUuHJ4fXilGVnH9aGJ66KdmuuDJEnlsWDBgqGU0g8LHOKMlFKrldLTcfyvymrNmjUvzTj2a6ygiuyQQw55ELgux9jr9XpWX2C1AVCSJGk8Jd6U0U7xFxas2KLGFtHOp3iYmwhOAl5gVgpjClCjzh+ixv94IqBKuw4dzU7RzjKCFQR7mZER2wY4mZlcHe3sZzpUqvXhGHaJGt0kesh3lNLErg/BYmZydSxkX9MhSVI5DA0NdRU5PscA6+l0dXVVgUML+/7h+F9tgJTSizMN/Y6DDjrobiuoDOT6+8YX5RSsDYCSJEnjJI5is6xGAA/ZAFjkeylqfBb4C8EngC3MSmE1A++miT9GO5+Lw9nYlKgU61CNSVHjw9T5LcGBZmSD7UFwXtToimPZxnQo6/VhPs1R46MM8RtgrhkZhfWhwvnRzg9cHyRJyt+VV155CXBbYfdyEYf09fVNsVJ6ounTp+8Dhd2Pro6IH1slbYBcGwB/bemUid/lGHRE7JZTvDYASpIkjd/Oa3/IZoTXjekU/mrRCvaycSybRDufospfgI8Cm5iVbEwl+AhT+X0s4m0ByZQo27WonX2Aa4DPAxuZkVE1n0GujXaOcp1QluvDIt7ITK4BPgtMNSOjmVwWMMi1sYgjXR8kScpXR0dHHfhRgUOctnr16jlWSk/5vlpcPfPmzXvAEmkDZNkAGBG/sXTKQUrpd5nG/cKc4rUBUJIkadx2irRmFOtPLFiBXuTnU40aCxnk+uET/6ablWw9h8T3qHF+HMMupkNZrUVrT/37IsGFZDb+IDMzCU5hEb2OD1dm68OXSPQBu5uRMVwfEqdSoydqbGs6JEnKU71eL/SoUscA64k6OjoqwJsLHKLjf7Whsvw5V6VSsQFQufh9pnFv193dnc3v42wAlCRJGgfRQQVoyyhkGwCLcu8czZuYydXAEnDsW4m0MMQvo8YxnuKjTNainYBLgA/gPTs+ErNp4pdRK/QvWSRiITsT/AR4n+vDuJkD/CraOcRUSJKUH8cAKzd77bXXG6GwX0BZXa/Xz7FKWl/nnnvuNsAWWb6PewKgMrFq1arrgMEcY08pZTMG2AZASZKk8XALb4KMTvGpc4lFm+CX9xpbRI3TqXMBsIcZKaVNgK+ziN5YyNamQ4VdjxZxKHV+AbzGbIy7LYAfRTtfi/k0mw4Vbn1o5zAqXE1iT7MxAetDcFbUONH1QZKkvDgGWBkq7KmQKaXljv/VhqhUKi/ONPT65MmTr7WCysGCBQsGgL9kGr4NgJIkSfq7XdfbM4r2Tpbgi+MEihr/xNoj0f8JT9Ipv8RsKlwdNV5vMlSotWjt+PH/InEGsKkZmchicCwz6XMksAq1PrTzZYKlrg8T7p/ZlAscCSxJUl4cA6xcFH38b9GfJWUhywbAiLihpaXlIcunjPwux6ArlYoNgJIkSRp+ETueqcChGYW8IkFYuQm4V97FlrGIs4DTgc3NSEPZDuiLGsebChViPaqxETM5A7wnC+S1NPHzaGdvU6EJXx825UyC95iNgki8Dvh5LGQvkyFJUh6GxwDfXtg9X8RB3d3dk62Uijz+N6X06MDAgON/taGybABMKTn+V7nJsgEwInbPJVYbACVJksbaQxwEzMhnN0uPRZuAtC9iLpP4FYlDzEbDagL+KxZxUsynajo0YevR0WwFXECBv+HfwLYhOD/aeYup0ISsDwvZmqDP/UohbUuF86Pm2i1JUg6GxwCfWeAQZ6SUWq2UgAWFfT+JWH7IIYc8aIm0gXJtAPyDpVNOIuL3mT5rL8glVhsAJUmSxnx3yLszirZOlZUWbRxfetaO0PsciXOBbcyISBzNZpwVh7OxydC4r0nHsBt1LgNeYzYKayrB0qjxL6ZC47o+1HghFS4jsafZKKyNgDOineNMhSRJGbz+p+QYYBVaV1dXFfiHwr6jRJxhlTQKa/GLcoy7Xq//yeopJ5VK5boc446IFwx/HhY/x95mkiRJY7gxPJo9gX0yCvln6WTutHLjdH8cxWbM5ByCjwDJjOj/bg4OZCPOi1pGp4cq/9tuES9miEuAXcxG4VWAr0SNDlOhcVkfarwUuATY2WwUXpXgq7GIT5gKSZKK7bLLLvsJcFth94ARh/T19U2xUo1r2rRpbwK2Lmh4qx3/qw3V3d29JTAzx9grlcr1VlA5iYi/ZBr65M0222zHLNYFbzNJkqSx3NHyvswiPtOijdOtUeOFVLkSaDMbepr1Yy8SPTYBatzWpMT5wJZmIyufjHY+Zxo0puvDQnYHzgO2MBsZSXwqavy7iZAkqbiGxwD/sMAhTlu9evUcK9W4Cn4K5LmO/9Uo3OM7Zxz7H62gctLa2noH8EiOsQ8NDT0vi3XB20ySJGlsxNHsRPCWzML+oZUbh3tjEa8FfgI8z2zomW8W9gJ64zimmwyN2W3WzvOB8ynut/r1zOvER6Kd/zQRGqM9ywuocD6wldnI0seixn+YBkmSissxwCqqrq6uakT8g8+OSm6nTOPuv/TSS2+xfMpszxPAjTnGXq/Xd8ghThsApVFfuXyuJEmP7QjpAJoyivia1MmfLNzYinYOIXEesLnZ0Dp6Df0sjRqTTIVGfU06hl0ILgC2Mxs5F5L3Ow5Yo35b1XgeiQuAbc1G1j7oOGBJkorLMcAqquHxv0X9ItAjzc3N51oljYJcTwD80/ApslJWUkq5jgF+bg5B2qg0ctWGu+Im75MR2sgUSJLiaF4BHJ5X0HzHyo1ximv8P4IzgalmQyM0h0RnQDIVGrU16d1szhArgOeYjVL4ZNR4n2nQKO1ZtgBWANubjRJYOw74eBMhSVLxdHR01CPizAKH6BjgBlXk0x8jorulpeUhq6RRsGOmcTv+V1mKiCwbAFNKngBYStPZoeGu+WG2tPAjWbXMlyQJqPOfme211hB8y8KN4RahnX8EvkkjfqFEo7XPPIIaHzcRGpXbqcYkBjgDR5GXzX/GIo4wDdqg9WE+zcCZwC5mo1ROiHbeaRokSSoexwCraBz/qwaS6wmANgAqV54AOJZ7Nu+vEaqyW8Ndc8Uf+I5s18muJkGSGlss4kBgv8zCXp5O4a9Wb8zuibcNN1ja/KcN1RGLaDUNGoX3lq+ReJOJKGFlE53RzmxTofW2KV8H9jERJVwfgiXRnt17iiRJpXf55ZdfSrHHAB/U3d092Uo1jqKP/00pOf5Xo2WnHIOOiD9ZOmV67/4509A9AbCUUgM2ANZ5lYUfyaplviSpoT8GjmM6ia9l+Pl1qtUbo9QuopXkyX8axXe4xLfj2Dy+cabCrkvvIVhkJkprEsEZsZA9TIVGvD7UOJ7EUWaitJoJzowaLzUVkiQVRwZjgGeklPwyYgMp+vjf1tbWh62SRuFeSimlHTN9Rm+ygspRtVrN9QTA50REKvza4C02YnMa8Jr9ZvDIvCKOZJppkKQG1c8JZPJNkMf5E/fjtybHQLQzi8QZwCSzoVG0BYP8IObbVKr1WJdqtJA4wUyU3nQqnBVHsZmp0Aj2LfsB/2kmSm8GcFYcw0xTIUlScTgGWEVR9PG/QJdV0mjo7e3dJiKmZvn+HnGzFVSO+vv7b8k09I2WL1++RdGDtAFwxKsp+8a72bxhLvcINgVaLPyINDOJA02DJDXgNmHtWM4cT0z5alrKkBUc5fvhGHYhOBfYxGxoDOzNZrzfNGhE61KNGcDpeCJpo9iZCt+KDn/2o3VYH45gU4JvuD40jF2o803XB0mSiuPyyy+/NKV0a2H3ixGH9PX1TbFS5Tdjxox9KfD430ql0m2VNErr2k65xt7U1HSLFVSODjzwwHuA/hxjr1QqhZ/K5A95Rm4SA7ylYa62mXcAbuhHvGOg3SRIUoMt/e9iSxKnAimz0FcxyDes4CjfD4ezMUOcRXF/WKZy7Dk7op0XmQiN4J75KvmdUqsNkZjHbXzMROhZNfNVcLx8g30mHMhtfMRESJJUDB0dHfV6vf7DAoc4bfXq1XOsVANsEyOKfNrjOY7/1WhJKe2caeir99tvv3utoDJ97gK4I9PYC/9z9SZvsfWpLO+PGqenTtaUeoNXYyPggxZ8vbwxarw+dfITUyFJ5RcdVLiN7wLbZ7iv+Xo6jQet4ijeD5CYyqnAS83G33kE+AtwD3D33/1JrP3BXZ0HSMOnUSbuJ9h0OKlVKkwnaAY2J9icCpsRbAnsCOwETG7AnE6hzjeig71TB3VvMT3j2rSIfyDxzowv4V4S1xHcCtxOcBeJ1STuf9wCnEhsSrAxsDXB1iR2Anajsb/Y1hE1rkidrPBJ0FOuD+28heDwBlwfdgZe0ODrw6diEVekJZznkyBJ0sQbHgN8XFHjGx4D/GMrVV59fX1N/f39by7su0vEGVZJo7jm7hAROYZ+y3ATlZTrs3d7ROyYYeiF/+KsDYDr5wXAQuCkkl/nB/Hb3xviY8Bc0yBJDeB2Pgnsn2HkD9LECRZwlNX4V+CtDZyBm4CrgV+S+CN1/swk/py+Pnbf6hpuwn0OFXZhiJeReBXwKuCFlP3U88Se3MaRwCk+fHraZ2QhW5NYnFHI95P4CcFlwGXAr1Mnd2/QGnELO1JlT2BvgjcAryC/U3vXVwX4TtR4VerkJp8IPWl9CE5u+PUh8Roq7NWA60OVxHfjWF6Vvs7NPhGSJE2syy+//NK99trrNmC7Qu4dIw7u7u6ePG/evH6rVU79/f1vArYsaHgPDw4OnmuVNIq2zTRux/8qaxFxW6ah2wBYYp+Io/hBOpVSHq8aR7MTdT5gmTdIW7RzWFqM30aRpDJvVGscQPDxTMM/MX2Ne6ziKN4P7cwi+HwDXfJqEj8luIDElTRx9UTcU8On3900/OfCv9XjSKYxiX0JWoFWYJeS1uGzUWNp6mSVT6GeUoUvU9wf4D/mBmApwblsz6Wpg8FRXiP+MvznB8Of39sCBwBvA1ooe7MwbEGwNObzhrSUAR8KPW59+EoG68NfhteH7jFeH74/vH/YjioHkHhrg6wPWzJEV9TYp+zTTiRJKrqOjo56b2/vGRHxLwUNcXpKqRVPASyzBQWO7ZyDDjroEUuk0VKv17dLKcvvfvnlLeXu9kzXjK2KHqMNgOtvG6p8Jzo4oGzjtuJwNqbOD4GNLPOGJpPOqHGlpyxIUkmX+RqvZO0vCnP8peAqJvFfVnGU91DBt4FJJb/Umwm+S4WV9HNpOp3VRQ10eLz12cN/iBovJTiCxNuBrUtUk62AfwPe75OoJ61NC9mL4p5KOsDahrxvsB0Xjee7derkdtaenHlK1NiBxFEExwJblPZmSOzJTD4KdPhkCCDa2Zso7C/4/m996OTCBOM23iidxm3AEmBJHMWOVDkKOKbU60OwF8FHgE/7ZEiSNLHq9frSlFJRGwAdA1xiRR//Cyy1ShrVd7+Utsk0bk8AVO7P3u05jt9OKRW+AbDi7bVB2riVT5XpgqKDChvxLdaOO9GGm0nw3TieqaZCksoljmJH4BxgkzwvgH/39L9RNpUTgN1KenWPkvgOwWy2Y6e0hA+nxZxf5Oa/p3xB6+TXaQnvYzueQ/AW4GclqtE/x7HFP4Je473Uk6hwAsUbZfkA8EUG2Tl18s7USd9EfrEudXJTWswngR2B48j0W6jr6CNR46U+HQpIRCbrwzg2/z1pfTiVG1MnnwB2JPEvwB2lvSkSH4ujeYlPhyRJE+uKK674aUrp1sLuI4fHAFup8hkYGGihwON/16xZs9wqaZRl2QCY8fhUKfd72AbA0kt8LNr5UCketBqTuI0lBP9gYUf1HnkdD7MsDmdjkyFJJdmcHsVmVOkGts30Ev7E/XzVSo7iPbGQfYFaCS/tPoJPMsB2aTHvSEs4rwynX6cOBtMSfpQ62ZOgDbiiBLWazBo+6tOov1PjMOC1BYpoDfA/wPNSJx8aPmWrOGtDJ4+kTv6HJl5A8O/AoyW8K5qB06LDiRANbxHzgb0LtT4EJxZ6fVjMiTTxfOCzpV0fhjg15lP1AZEkaeJ0dHTUgTMLHOJjY4BVMhExv8DhOf5XYyHXEwDvsnTKXK5fvt6y6AH6A99RWGMJvhA1tmE73pfrL0TjKDYDzgBaLOmY2I+NWB41DkqdrDIdkpSv4ea/lcCL8r0IPpCWMmA1RymdxzGZfk6ieCfobIh7gP9mMiemE3mg1Jv5JfRGByu5jUXAF4BNM34zOTKO4gvpVG70yVTMpxn4fIHuz0uosCidxB8K/yh9nYeAf4t2vkmdb5B4Xcluj1ncxr8CX/RJaei9y+cLFNJFBLW0hOsyWR8+Hov4JolvUKwm69FYq/dkU44HvuSTIj2FSXyDAVZkEWuFLmCXgkV1LnU+6Y30pFr58xk9iWOANd6KPv43IrqskkZTd3f3dDKd7lSv1++2gspZRNyTUpa/Tiv8CYA2AI6e93IbL42jODqdyh+zesAW0Uria8DzLONYJpo3AL+MRSxMSzjPhEhShkv5McxkiJXAKzO+jHPTEn5kNUdRPx8BXlCSq6kDSxjgw+l07m+UEg5/iWdxLOQsKpwKHJDppTRT4cPAMT6YYia1grzjPULwUbbjxNy+MJcWc310sA+3897hEwGnlugO6YhFnJVDw5XGwAA1itEU8gjwEbbjf7JbH5ZwXcxnH2byXuAzpVofEp+Ods5Oi7neh0V6wuPxde4gk1HgUSvgSaXBPekUfu6dJD27tra2S3t7e28GnlvINSbikL6+viktLS2rrVY5rF69er+UUlFPNnrowQcfdPyvRnsd2ybX2FNKNgAq9+fv3kwbAKd0d3dPnzdvXmEPzXAE8Ojajyq/ihofzmHcaxzDLlHjRyR6sPlvvOxIYkUs4qR4V/GPCJUkPe5zs8YW1LNv/nsIONZqju5+CvhwSS7nt1TYJ3VydCM1/z1eOoW/0slBJD4MDOZ5Ebxz+HRvNfLatHZ843sLEMpPSLw8LeEruZ6Wnzqop8X8F8HLgctKdJtMJXFqdPhzoYZcH6IA60PiEoZ4Werkq9muD0sZSp2cQJVXkLi8VOtDcIrrgyRJE7jPSClSSkX+Au+01atXz7FS5TF8qmNRLVuwYMGjVkmjvM5um2vsa9assQFQWavX6/dmHH6he3z8Qc7omwp8nqncGu18OY5htyIFF8czNdr5x2inhyGuA95sycZ/T0HiaCZxQ7TztVjEq02JJBVb1Hge8FOCV+V9IXw8dXKTFR1FQ3wWmFyCK/ki9/HKdDKXulEj0mL+gzqtkGUj5EY0sciHs8FtysFM7Je8Bgk+wHa8sSwnSA2flPdGoLNEd8rruZV3+sA0mM04hIk9/W8NifexLW/KbYLG064PJ/EH7uWNJJaU6E7Zh9t5hw+MJEkTp16vLy1yfAVvGNMI9PX1NUXEwUWNLyKWWiWNtmq1mu0JgJtsssk9VlA5O+CAA+4HhnKMPaVU6DHAjgAeOzMI3sMQ74kaNwE/Ze1pAbdPQCybEbycxMt4mD2g+KcTNoiNCI4lcWzUuI1EH/Br6vyFRJiejCXup85t3M/1aSkDJkTKW9R4DfBjYKusLyRxCffxP1Z0FO+NtU38b838MlYTLExL+I4VfcIjcwoXxNG8gTrdFHTkztPfnBwbHZyQOjI9xVAbrsLxE/hGcS+JBamT80u3LnSyBmiPdn5D8F+U4Wcqic/E8fwg/TeeptAwGxiOn8C//R5gflpMX+nWh7Xv/rVYxG9JfKkU60Pw73E8S10fJEmaGI4B1njJYPxvj1XSGKxhuZ4A+JDrrnKXUoqenp77gc0zjN0GQLHD8J+3TdydaBEKbjuCt1ursuwah+s4k8Fo5yqClVT5TjqJP5gcKbPHuZ23EpwGbJT5pdzPIIenpXl+o6bAvpj5J/ftwD+kJVxhKZ9mC30yv4ljeR2DXATsnNX7x+0cAJxtFRvys2sWwRsm6K+/liEOKcupXk+7NizmxGjn9wQ/AGZmfjnP4SHeC3zep6cB1oej2ZM6r5+gv/63VDk4ncSfS70+LOErUeN3wA+ATTO/nOfyCP8C/IdPjyRJE7CvWPvL8R8C7yloiI+NAf6x1cpbpVKZH1HYc0l+7PhfjZFcTwB0/K/K4h4ybADEEcCS1LCaCPYC/o0hfh/tnB81WkyLVHwxn+ao8RWC75N/8x8kjk2ncqOVHcV75GheR+JNGV/CrVR5feq0+e9ZH5+vczMV9oXsxmf/k9VrWO+doL/3XCazd9mb//62NixmJXVeB9xRgn3Ch+Jdxf7hlUbJ0IStD8sYZO+yN//97ZHqZAWJ1wF/zX/Ty4fj3Vn+QF6SpFKoVCqOAdaYuuqqqyZFxJsLux2NOMMqaYzk+nMQx/+qLO7LNO5CnwBoA6AkjdubCvsCF0Q7P4yj2d6ESAV9VBfyHGZyIfAvJbmkb6TFfM/Kjvqa/r6Mo7+TOrMb5ZfwoyGdzA0MsR85fcMyOMBf2Dfg0nQsmxD8wwT81YvZjoPTiTzQUGvDKfyOxH7AnZlfygya+DefoJKvD0cyjcSbJ+CvPonteHM6jQcban1YzLUE+wF3ZX4pmzLo+iBJ0kT56U9/ehlwS2H3mBEHd3d3T7ZS+brrrrv2pbgnMD3o+F+N2TtbSllOdIgIGwBVFvdmGnehf+diA6AkjfvujH+gzjWxiLkmQyrY49nOO6jwK2DvcrzF8nMGONbKjvJ9chS7EhySafj3EbSmU/idlRzh43QqfyRxKDCQScjNrOFtVq7BDHEA431ybXAynRyTOqg35NqwmGuB/cl9BEuiPY5iVx+iEpvEgcDUcf5bv0Yn727Y9WEJv6XO/uR+QkNwTNR4ng+RJEnjr6Ojow6cWeAQp6eUWq1Uvgp+iuMyx/9qDG2W5XtmSg9ZOpVEricAblroz3XvK0maEFuQWBY1FpoKaeLFsWwTNc4m+BYwsySXdTeDHJpOZ7UVHmVV3pPpPrpOYn5awjUWcf2kxVxMyqqp1gbAhvtAY8E4/30ns4RjE0RDrw2d/JpgNvl+cxWgmSqf8yFyfRhF/0MnxzX8+nAKv6LCbPL9wfba9QE+60MkSdLEcAywxkrRx/8CXVZJYyjLBsCIeNDSqSQezjTuTQu9L/O+kqQJUwU6YxFHmAppgl6W5lONGu0M8lvg4BJd2gCwIJ3KjVZ5lO+Z45gM/L9Mw/9MWsz5VnHDpMWcSmQzVnvvOJqtrFqDrE9HMg3G9YTpk2z+e9zasIRrCN4CrMn4Mg6Ldl5kNUu5f5kOtI3fX8iJdPIvrg/D68PJ/IIKbwEGM76M+bGQ3a2mJEnjb/bs2T8FbirsXjPikL6+vilWKj/33HPP/hR4/O/kyZN7rZLGcO3K8iAITwBUiTyS6dqxaZHjswFQkiZ4r0ZiSdRoMRXSOG/SFvFGZnIVcDKZftvr6S6NxBGpkz6rPAYGOCDL+yVxAffxGQs4avk8Brghg0irDHGgBWsQ4zneM3E6nbzb5p4npGUJFxF8IOvVrc6HrGQJreYgYHx+KRucyhLe4/rwhIfrZC4EPpjxJVSoZh2/JEn57iNSCuCHBQ5x2urVq+dYqfxExPwC3/dnt7S0ONlGYynX3wnZAKiy7G8eyTTuTYscnw2AkjTxmoDvRI0tTIU09mIRL45FLCVxIfDyEl7iB9LibE4ny0+dd2YY9b1UeXtaypAFHKWXvE5WkajlESyHWLFG+HDjLIIvjNPfdSnNHG1zz9M8ckv4CvDtfC+Af4yj2NFKlupt82wSnx+nv+1i7vdk0GfYP/w38N2MP2veHsfyXCspSdIE7CNScgywRtVVV101CYr7M6N6vb7UKmmsdHV1NQMbZRr+w1ZQZRARj2Ya96aF3pN5a0lSIWwLfNE0SGO4Kavx0qjRReJXJA4r6WV+LnVygtUeo3voGGaSxnW85mj5ZPo6d1jB0ZUWsxL4fgah7j88ulqlviF5E7DDOPxNNxEcmk6k36Q/g42pAb/INPpJVHifRSyVFhiXpq2/AIempQyY8me0CLgm2/VhyPVBkqSJMGfOnMtwDLBG0fD436KegPbglClTVlgljZXNNttsZq6xOwJYJeIJgGPABkBJKo4jop2XmQZpdMVC9ooaZ7L2F23zS7z/+WLq5GNWfAwNMhtozizq37AdJ1u8MfOvFH/swkasZi9LpVHwMMEh6RT+aiqeWfpvHh3ec+T5rezEUfEutrSSGoEHgUNSJ3ebimd5vDp5hCHmk+kPugkWOr1AkqQJ2EM4Blijva0r8Phf4CzH/2qM7//NMo7dBkCVZW/zSKahz4iIVNTgbACUpAJ91gEfNQ3SKLwEzacaizg0alxKhcuAt5R833NC6uRDVn7MV+l5Gcb83tTBoMUbo/R2cjuJEwsfaIV9rZY29KOVxBFpSbanVk3E+vAnItvG/I2YxHFWUSNYHw5PnfzaVKzj+nAqfwQ+nmn4GwP/bBUlSZqAPYRjgDVKij7+t+j3uvJXr9ezPQHQBkCVSK4NgNXly5dPK+x+zPtKkoq0c+PNfpte2oBHqMa2UeOjzOR6EmcAr22AdeOTqZP3W/2xTjMJaM0s6JVpMedbvTE2yJeAVQW/F2wA1Ib6elrMGaZhhLbnRIJLM43+n+NIpllErYMvp8WcbRpGaDu+AlyWafTHxbFsYhElSRpfjgHWaLnrrrtmU9zxvw80NzevtEoa4/Uq2wbASqViA6BKoV6v59oAyKRJkzYt7BrhrSVJhdIMHGoapBG8rHXQFDUOiBo/Yu0PwT4L7NwI+2OCd6clfNq7YBwczcuBbbKKOfElCzcOaT6Ve4GTCh7mnnE8U62W1tPvgA+ahvVYHzqo08RRQI6ji2bSxDusop7FbxjwFPv1Xh/gyEzXh80Y5O1WUZKkcd4/OAZYo3cvHVbg8M52/K/G4RnYNNfYPQFQJfJwroEPDg4Wdg2xAVCSCrd7Y3+TID3LY9JBJRbyhmjna9zGbcA5wJuBpgZJwaMk3pqW8HXvhnFSz+40yV/Sid+WHT8nQaFHLTfzEK+wTFoPA8A7Ume2IxkmXDqJPwCfzDT8o62gnkE/iXek0/GXc+u7PnTye+BTrg+SJGmd9w+OAdYG6urqambtz9G9x9WwImJaxrHbAKiyyPbnzZVKZdPCxuZ9JUlFe8NhL5MgPcWLzXFMjhpzYhFf5TZuoMLFBMcCWzZYKm4neKOjGMfda/J6YDghQVi2cfro7uQm4McFD/PVVkrrsZZ0pE6uNhEbaDv+i7UnKeZmj2hnbwuop/FvaTG/NA0b7ATgDxnG/fKoZbY/liSpBBwDrA01ffr02UBRx5/ePzQ0tMIqaRxsnGvglUrlQcunMqhUKo+6hoxBXr21JKlwto8jmWYaJIhFvCDaqUU7P6Sfu4FeEscBz23QlFxNnT3TEn7m3THucmrO/iuJ71uycZb4ZsHj29MiaYR+wv180TSMwuPXwSDwgSyDr3vKl55qk86FbMcJJmIU1odO1pAyXR+S64MkSeP+8ZtSRMSZBQ7RMcBF38pHzC9wbGfPmzev3yppHGTbADg0NOQJgCqFwcHBbE8AjIiNihqbDYCSVMD3eCaxjWlQo4kOmmIhe0SNhVHjW1HjFhJ/IFhM8A/AJg2+MixhgNelU7jFu2Wc7813szmwa0b3ypmpkzVWbpxtxAqgyD+A8QRAjcQaEu1pKUOmYpSW5k7OBc7LcP8xP45iMyuoxxmgiaNTB3VTMUqP2WKWkbggv00yb41jCnt6jCRJZeYYYK2Xq666alJK6aDC7osd/6vxepWJmJpr7FOnTrUBUKWQUnok4/BtAJQkjcgMU6BSv2AdwabRzt7RzlFR4ytR41JuYxUVfgksAd4BbG+mAHiY4J1pMbV0OqtNxwQY4CVAyijiH1i0CXhh/W8eJdFd4BCfF4fn++1WjfcNzVfSYq41EaOe1/dDdk2VU6nyTxZP/7eR57/TSVmOrC22Ou+D7JoqpzLIOy2eJEnjq62t7XLgxsJuFx0DXFh33333HCjsF7zur9fr51kljYdKpbJRrrFPmzbtYSuokjyHngA4Bpq8tSSpgIZcn5W/OJZtGGJngp1h+P8mdgF2A7YjzNE6uAo4PC3h96ZiQr0go1hvY1t+YskmSJ0zSSwo6js1k3kh8HMLpWddR9bwadMw+tJifhmLOJ3EUZmF3h7w5YS7N3ELk/h30zAG68MSroka/wu8K6/AaQ/4quuDJEnj+PGbUixfvvyHKaXjCxriY2OAf2y1iiUi5qdU2O84n+X4X42jXL8kvXrWrFlO/lEpVKvVR4aG8hw+k1Iq7CmiNphIkqSR/aBgPs1szpYMsg0VtiHYEtiWxHYw3OwHOzPI32+AkrkbgUESnyP4d0e5FmE3z24ZxbrUkXwTaBLdDPIoMLWg98eLsAFQz+4D6TQeNA1jpM5nqPJOYFJGUe/G0byWk7nUAjb8nuj96es4bmisVPg0dQ4nr5/X7k47e7GYyyygJEnjailQ1AbAx8YA2wBYIF1dXc0ppUMKHOIZVknjpcindz0LT/9TacycOfORu+++O8vYU0qFbSK2AVCSpLK/zNTYiCqT//YvDDCdZqoADLExwTRgGonpBJtSYdrf/rW1f2YSbEliK2BrYHPqQOWxnY45HmW/psLCdDJXmoqi7ObZLaMzTZZZsAm8Vb7OQ7GIFSQOKei9/CKrpGdxEZ18zzSM4WN4KjfGIr5HymxsZp23gQ2ADa4vLeYHpmEM14eTuSFqfB94R14vnLwNbACUJGk8tbW1Xd7b23sz8NxCbg8iDu7r65vS0tKy2moVw/Tp02cDmxY0vPsfeOCBlVZJ4yjXBsABS6eymDVr1pqenp5BMuxZiwhPAJQkSX9n+6iNY0vR409Rrj7h/09P+Oenisomv/HwKPBp4IR0sqf+FWs3z/Oy+QFA+MvXCZc4BwraABjsboH0jHcI/KtjHMdBhf8geAf/93WKHMyP+bw3LWXIAjbo+lDhfaZhnNaHOm/P7A1sfsznX10fJEkaPyml6OnpWQr8a0FDnO4Y4MJZUODYfrRgwQIbmzSech0BPGjpVDJZNgBS1AlQ5PXDZkmSpHJKnEOVl6ROvuDI30LaJosog5+lTh6xXBPuJwVea3a2PHoGZ6dOrjYN4/AoLuZa8vtF2NZsSovVa1g/SifzC9MwDuvDyfyG/E503pYZvNHqSZI0vur1+tIixzc8BlgF0NXV1QwcVNg9cEpLrZLGWa4nANoAqLLJ9Z4u7BpiA6AkSdLE+QNwYFrMQekk/mw6iieOYAowM4tgExdZsQLo5A/AXQWNbicLpKdb7kh0mIZxVOHzGUb9NgvXsOvDp03DuPpcdhFXXR8kSRpvc+fOvQK4sbCbyIhD+vr6plipiTdjxoxWivvzzftXrVp1vlXSOLMBUPKeLuUaYgOgJEnS+LsD+Ge24yWpk3NNR4E1s1VG0doAWADD41OLOop5ehzBplZJTxKcmRbzSxMxjmvFyVxZ4LXi6Ra4t8R8mq1ew32wLXV9GOeUd3IFcEVmnyOHRo1JVk+SpHHcM6QUwJkFDnHa8BhgTfRWLeKwAod3luN/NQGmZhq3DYAqm1zv6cKOEbcBUJIkafzcA3wIeF7q5Gupwxe2wqtkMv4XgslcbsEK49LCRjaZHS2PnqAOnv43IRKnZhbxTDaj1cI12PpQ9/S/CdrZ5bY+bAb4C35JksZ7s+YYYD2L7u7uycDBhX0tTqnLKmncX7cicv3y0pDVU8nk+jvSyYXde3lPSZIkjbm7gU8wmV1SJ19MnTxiSjJRz+a0tJvSiTxgwQrzlnVpge/p51ogPUFXWsJvTcMEqPID4KGsYg4WWLgGEvzA9WGCTOEHwMOuD5Ik6Zk4BljP+tpZrc6Bwv588z7H/2oipJSaMg19jdVTyeTaAFgtamA2AEqSJI2dmwney6PslDr5jA1aOf40IJNxAOEv5wtlElcBxRxfUmFrC6QnrB//ZRIm6CPm6zxE8IPMwp4b84v7Qy6N+vpwgkmYoPVh7XtDXqehJOZGhz9rliRpXD9+HQOsZ9vSR8wv8P37Q8f/aoLuvVx/ruFEKZVNlvd0RNgAKEmS1EB+Aryd+9g1LeEr6VuZnd6hx9soiyiTDYCFKseJ9AN/LmRwdbayQnrc2nF5WsLPTMQEqmQ35nNzNmNPC9cQLkun8HPT4PowAltyG6+2cJIkjfNrvmOA9TSKPv636Peuyisicj0B0AZAlU2u93Rh1xAbACVJkkbHg8BJwB6pkzekTr6bluI3GHNXz+QEQGwALJzEHwsalw2Aevwa9z8mYYIfycVcBvw+q6CDuVauIT7HTjQJE1yCk7kUuC6zsF0fJEka7w9fxwDr6faTKbUCMwoa3n0PPvhgn1XSBPEEQMl7er1VKpXCriFN3lOSJEkb5FckTmIN30mn8aDpKJkKA0RBT3J7vMQ1FqtgorANgFtaHA27g/vx2/bF8APgkxnFOxf4hGUrtdu5t9Cj5Bptffi3jPY/c4EOyyZJ0ji+5qcUPT09ZwDvK2iIj40B/rHVGl+VSmV+RBQ1vDMd/6sJZAOgVAxDOQZdr9cL22dnA6AkSdLI3QecRYVTh0/mUEmlxXwb+LaZ0IgF15MKGdkWFkdrFzg6Pam2MOvFUlJWDYCvjIVsnU7hrxavtBa7PhTGUnJqAEzMinexZfoGd1k6SZLG8SM4paURUdQGwMfGANsAOI66u7snR8RBBb4n/EKiJpIjgCXv6Q35DCtsE7EjgCVJktbNA8C3CQ7iPrZJnRxp85+kp1XUEcDBNIsjYA1rWGwaCrJcLOG35DXKvUKVVitX4vWhyfWhMOtDJ78GfpfV+tDs+iBJ0nibM2fOlcANRY3PMcATsCmrVNoo7vjfezbbbDPH/2oi5XoC4JClU8lk2QBY5BMAbQCUJEl6eo+SOIfEP/Eo26VODk9LOMcTUSQ9q2pBGwBhE4sjYHk6jdtMQ6HkdfrB2jGfKqdz09e5wzQUSpfrgyRJeiYppQDOLHCIj40B1nhtySLmFzi8H86aNWuNVdIEcgSw5D29IfsuGwAlSZIy8VfgW8ACYIu0mIPSYr6ZvsXDpkbSOhvi5oJG5gmAgsS3TELB1DNr8IH9goIOOpfrQ9kEuY1H29/1QZKkCdjGpVToPcPwGGCNg+7u7skppQO9V6Wn5QhgqQAiItcGQEcAS5IkFdQAwYXAR6jwSjrZNnXyztTJ0tTJI6ZH0nq9BHayBgq5hngCoO6jmWWmoWBrxin8jrzGfG7JQl5o5UrnHu7lHNNQsPVh7ZjwP2QU8lYcwwusnCRJ42t4DPCNRY0vIg52DPA47R9TaqXA438333zzC62SJliuPTKOAFa5HsRKJcsGwIjwBEBJkqQC+ROJrxMcQhObpyW0pE6+kE7mFwnC9EgaJasKGJMNgI0u+EE6kX4TUUCJc7OKt8I+Fq109+AP0lIGTEQh1+681odB1wdJksZ9K7d2DPAZBQ5xumOAx+lVrdinLf7I8b+a0FeriIQnlkvawI9aA5MkSSqGa1Inu6bFvDst4cfp6zxkSiSNkQcKGNMky9LgKnzTJBRUbg2AiTdYtJIJ14cC18b1QZIkPftHsGOAG153d/fkiDi4wCH+wCppgtfJAOqZxm5vj0olIqqZhl7YRnYXCUmS1GheGDXOiHaOiiPZznRIGkNFbABsCr/l2siuS4u5zDQUVJ1LgfuziTds8CmZP6ROrjANBVXhkoLuK56O64MkSRNgeAzwDYV9hYg4xDHAY6tarc4Fphc0vLsnT558oVVSAWQ5Sjci7O1R6T62Mo3bBkBJkqSCmAIcSnAKTdwaNX4bi/hCLGL/qHkylqRRVcxf1Hdk+2KtDZX4vkkocHk6WUNiRUYh7xBHsaOVK43vmYKCrw+R1fqwU9TYwcpJkjTOe4aUIiKKPAZ4mmOAx1ZEzC9wbD9saWkZtEoqwFqZ633oz3RVNjYAjjIbACVJUqN7EYkPkVgJ3BE1vheLODyOYFNTI2kDrSpoVDY7N64fmoLCy2vMZ5OnfLk+yPXhab3ekkmSNP4cA9y4hk9XPNB7U3pmEWEDoFSMZ7GSadw2AEqSJGVgM+BtJL5JM3dEjbOjnX+MY9nE1EhaD6sLGdUqmixNQ/pjWswvTUPBreG8zCLex6KVwnWpk1+bhoIL1wdJkvTs2traroyIPxd2S+MY4DGzevVqx/9K6ybXBkB7e1QqKaVqpnEPuEhIkiTlZTJwMMF3GeSvUeObcTRvCkimRtI6KuY3wZp8D2xQnu6VgXQatwF/yCbg4DVWzfVB47Q+nMItwPUZhez6IEmS+7un4hjgsdovpjS/wLGd6fhfFYgnAEre0+vNEwAlSZLythFwOHX6qHFd1PhoHM1WpkXSM0oMmAQV6O3/TJOQjQszivVFcTxTLVn2n1euD/nUKqf14cVxBJ7uI0nSRGwZHAPccIo+/rderzv+V0WSawOgU11UNln2q6WUbACUJEkqiV2Bz1Ln5qjRFe3sbUokPY01pkAFcQsn8zPTkInERRlF28SDvMyiZe0GFvNz05CJelbrwyQm8VKLJknS+HMMcOMZHv87raDh3TVlypSLrJIKZCjTuJstnUom11MtbQCUJEkqmWZgPsFPo8aFUcPRFZKyeRFUwzkrQZiGTERWJ3xBhVdZtKz92PUhI1XXB0mStI4fw5VKkU95dgzwKCvy+F/A8b8qmlzvRxunVTZZNgB6AqAkSVK5vRHojRpXxiIODkimRBLhCGAVRGK5ScioXJ3cDvwho5Bt8HF90HiV62RuBa7PaC/k+iBJ0gQp+shVxwCPnuHTFA8o7B624COp1ZBsAJSKIcsGwHq9Xtjf+9gAKEmSNHpeTeJsFnF5HM2bTIfU8DwBUEWwOrsT5QSJyzKK1gafvNeHi01DZsL1QZIkPbu2trargBsKu6WJONgxwKO0qV87/nd6QcO7c9WqVY7/VdFk+TPbiHDNVNnk2q82aEIlSZIaRWJP6vRFjR9HO883IVLDsgFQRXBx6uQR05CZOj/LKNoXxfFMtWhZutD1Ict3jZzWh5fEcUy2aJIkTcCWIaUo+Mlr0x0DPGoWFDi2MxcsWDBkiVQwWb4Hp5RsAFTZ5DoC2BMAJUmSGtBBBL+KGh1xhMezSw3IEcAqgh5TkKWcGnyaeJCXWbIMheuD68OYm8Rq9rBkkiRNDMcAl19fX9+UlNIBBQ7R8b8qnJTSQ5mG7perVLZnMdcGwMIe/GADoCRJ0tiaAnySZn4dNV5vOqSG4gmAmnh1G3yydD+/BPqzibfCSyxahppcH7I0mWvI6UsGrg+SJE2Y4THAfylqfI4B3nCrV6+eB0wraHh/feCBBy62Sirg2pNrA6DTF1S2Z7GSadyPFjU2GwAlSZLGx67AhbGILzgGS2oYNgBqot2UTuF3piE/aSkDBL/MJuBgd6uWnRvSSfzBNGS4PpxIP/Ar1wdJkvSs+4a1Y4DPKHCIjgHecEU+RfGHjv9VQeXaADglIpLlU4nk2gD4kAmVJElSlcSH6OeyOIpdTYdUcuEIYE24i0xBxlJGYz6TDT6uDxpnrg+SJGmdOAa4vLq6uqamlA4scIiO/1UxX1HyHQFcufDCCze2giqRpkzXkAcLu0h4T0mSJI27V1Dl6qjhD7ikMqswaBI0oYJLTELWfptRrDb45Ca5Prg+jNtn0QstlyRJE2fu3Lk/A/5U2K1CxCGOAV4/06dPnwdsUtDw7nD8rwq87uTaAMgjjzyyiRVUieQ6Le2BogZmA6AkSdLEmAb8INr5XHS4J5NKqe4JgJpgNvjkXr+cGgB3iBobWbSsPqNcH3JWyWp92DmOwF/qS5I0sc4scGzTHAO83or85fIzHf+rAsu2AXDSpEnTLJ9KJMsGwIjwBEBJkiQ9SSL4CLexNA7Ho9ul8lljCjSB7qSTP5iGjA3wu4yirYCnfGXkjrSE60xDxgazWh+qNPECiyZJ0gRu1isVxwCXzLJlyzYCDihqfEUfPa3GFhEPZ/sqODjoCYAqy3OYgEk5xl7kEcBN3lqSJE2Ie4EzCh7jJk/YfE0a/tc2BTYCNgamD///yZJukLcwlR2ixtzUyd2mQyqJCnXCNGjCXJLwDsxZ+gZ3RY27gC2zCDjYHbjayuWxPpiCzNeHU/hr1LgH2DyLgKvsDvzKykmSNDHmzJlzVU9Pz5+A5xXyVWJ4DHBLS8tqq7Vumpub50VEYcf/PvTQQz+xSiqqSqXyUESePzKrVqueAKhSuPDCC3Md/2sDoCRJepJbUiftZbiQ6KDCLWxJE1sCWxBsS7AdsBOJnQh2BnYCT7h7FrOAi+NYWtPXudl0SKVQNwWauA9oG3xK4nfk0gDoCYD5cDx4mdaH12fymbS75ZIkacKdCXywoLFN6+/vbwXOtkzruL2KKPKpiWc4/lcFf34eyjh2GwBVCoODg9k2AA4NDdkAKEmSyil1UAf+Ovzn6V9MjmYnghcRvITgxSReCbyItSPjtNbuDHJJLKQlncJfTIeUubABUBOoymUmoRTryLUk9skk2udZsGy4PpTDteTSAAi7WC5JkiZWpVJZWq/Xi9oASErpMGwAXCcZjP89wyqpyFJKD+Z6AqANgCqLer2ebQNgU1NTYZuI/YW7JEkan5eqk7khLaY7dfLFtIR/Sp28lMnMJDGH4JPAeYBjHmBHKlwQNXYwFVLmbADUxBlgEr80DWXYQPG7jGLdyYJloZ97HcVakn3Gta4PkiRpXc2ePfvnEfHnwm5tIg7u6+ubYqWeXXNz8zyKO23n9iuvvNITx1XsV6mI+3ONvVKpTLeCKolsGwDXrFlT2BMAbQCUJEkTJp3IA2kxK9MSPp06mQ1sTjCPxFeAGxo4NTsB50eNbb1LpKzZAKgJ+oDl1+lE+k1ECeTU4AM7WrAs/CotZcA0lGKtz6dBOGwAlCRpwrcOKUVKaWmBQ5w+PAZYz25BYbd9EWd0dHT48zAVWqVSuTvj8DezgiqDiMi2AbBerz9Q2PXNW0uSJBVF6uSRtITlaTHvpZNdSLwW+CpwewOmY1fgnDiWTbwzpExVbADUBKnzM5NQEkNZNQBuE0fgiR2F33C7PpRorc9pfdgu5tNs0SRJmuCtYLEbAImI+VbpmS1btmyjiJjnPSatv8HBwWwbACNiphVUSeTaADh04IEHPlrU4GwAlCRJhZQg0mIuS528h+3YgcShJC4AooHS8ErW8IPooMk7QsqSDYCaKDb4lGU/dBq3AfdnEm6FSexg1Qr/yeT6UBancCvwQCbRVpnJcy2aJEkTq7W19efAnwr7/pOSY4CfRVNT0wEUePzv5ZdffqlVUtFNnTrVEwCliZdrA+BDKaXC/p7aBkBJklR4qYPBtJgfpsXsR+IlwGnAmsa4eOZxK//hXSBlKGwA1ITde1eZhFLJZ8xnxTHAhVd1fSjPawKR1fqQHAMsSVJBnFHg2KY5BvhZtlQpHVbU2Bz/q1y0tLSsBh7KdA3Y3AqqDDIeAfxgkYOzAVCSJOX1grOYa1MnRzHE8wlOBvrLf9H8a7TzVqsv5fYWawOgJsRqnpPVWEg9u+uyibRug0/BPco9GTWMqWzrgw3CkiQVgGOA87Vs2bKNgAMKHGKXVVJGsjwF0BHAKpFcGwALvXbYAChJkrKUTuXGtIRjqPBCEl2UfTRwcEocw25WXsppoWLIJGgC/C51MGgaSrUHuDmjdc8Gn2LX59q01M+mkslpfdjJckmSNPGGxwD/sbBbBscAP61JkyYdSIHH/15xxRU/tUrKyD2Zxu0IYJVFrg2AdxU5OBsAJUlS1tLJ3JAW81YqvIHEz0t8qZswxLejxiSrLmXCEwA1Mffdr01CyVQyavAJnmvBCs31oXQvQ1k1ALo+SJJUHGcWODbHAD/d61axT0fscvyvMnN3pnHbAKiysAFwDNgAKEmSSiGdzKXcy2sIPgA8WtLLnAV80mpLmbABUBPygchvTELJ1LNq8NneghX6c8n1oXw1zWd9qLs+SJJUmG27Y4Cz09vbu3FKaV6Ba3aGVVJWr1IRNgBKE6hSqTRnuodyBLAkSdK4bLyWMpSW8CWG2IPg0pJe5ofiaF5itaUMNNkAqIn4MPSEr9KpZtTggw0+Bef6UDY2CEuSpPXgGOAsHQhsVNDYbnH8r3JT9CaeZ7BRX1/fJlZQuavX67l+zt9Z5OBsAJQkSeV7eTuVP7I9bwI+B6VrwGmizletspQBTwDURBjyhK/SqdsAqFEy6PpQOpNcHyRJ0vop+IltjgF+cr2KfCriGY7/VYbuyTXw/v7+bSyfSsARwGPABkBJklRKqYPB1MnHgLk5v8w9jZZo561WWZL0BPenU7jFNJRsT9PJKuCBTMKdFscx3aoV0r3pNG4zDSVbH07iPuChTMKdEcfiSRWSJBVlH+EY4Gz09vZuzNqfcRdSpVJx/K9ydEeugUeEDYAqwz5kao5x1+t1RwBLkiRN2CaykxXAa4Dfl+rCgi/5CzRJ0hM+G64zCaWVT2NnP9tZriJuil0fXB8KYI3rgyRJRdHW1nY1jgHORaHH/86ePdvxv8pORNyaa+yVSsUGQJXhGZyWaeiOAJYkSZpIqZM/McTrgItLdFnPYYiPWl1J0uPe8K83CaV1Uz4bL8d8FlK4Prg+uD5IkqQnbBEdA5xLneYXOLalKaWwSspNvV6/OeM1wQZAZa9SqeTaAOgIYEmSpImWTuVeNqaNRG9pLir411jIc6yuJGn4c8EGn9JuZMjpB9M2+BST60N51/581gcbACVJKtZHs2OAC294/G9bgUNc6pOkLF+jIm7JNfaU0tZWUCV4Bqdl+vwVugGwyVtLKow7SFxMnd8CfyLxMMFDxV3dqAAzSGxOsBswC9gTaLaUkgq7dP03j8ZxHEI/ZwIHlOCSJpP4IPAvVleShA0+5ZVTg0+drSxYIe8h14fSvuRk1SDs+iBJUoG0tbVd3dPT80dg10Juc4bHALe0tKxu1BrV6/WDUkobFzS8W9ra2i73SVKODjzwwPt6enoeAjbJ7vU+wgZAlcEmGcY8dPnll99f5ABtAJQm1ioSpxN8M3Vyde4XE4ezMVN4MxWOJNjX8koqonQi/TGftzCTc4H9878gFkaNz6dObre60gTvhY5jOqvZjQq7E+xOnb1I5kXjqMIfTUJZNzDcQmQT6+YWzPVBrg9PvVlyfZAkqXAfzxFnpJQ+XNDwHhsDfHbDbvVSKvIpiF2O/1XmbgV2y3DddgSwyiDHEwDv7ujoqBc5QBsApYnxKPBF4L/TYlaV5kXkWzwMfAf4ThzNntT5IvBGyy2pcOvVUgbiOA6ln4uBl2V+OVMJ3g+8z8pKzyyOYzKDbATAEFWqTH/Sf2iIZuo81TerNyKxCYmZwGYEm1EZ/r+wLbA7/WxPgr/9Et7mP437B5wnfJV3AePOjO5DG3yKeQ+5PpTXnRnF6vogSVLRtu9rxwAXtQHwsTHADdkA2NfXt8nAwMDciChqbc7wCVLmbiHDBsCU0naWTrmLiGkpZfcLlLuLHqANgNK4r2ZcShPvTCfx51K/NJ7MlQEtLOJdJL4KbGzxJRVqnTqRB+JI5tHE5cBz874Y2uNdfCF9g7usrEq9jXo3mzPI1gRbE2xHYivWjpKbCcwAZhBMJw3/89pj5Ksw3OjX/4T/waGn+Ysq6/Tcgd9xVrGsSidxn2koqQr3U88kVk/4KqL7Umd5vnyoJ+1n7l+nvYvrgyRJegoZjAE+qFHHAK9evfrAlNLUgoZ3k+N/lbuIuCXDBiSAnayecpdSynH89l+LHqMNgNL4+irb877UwWBDLNwQLOG0aOdygnOAnb0FJBVqnTqN2+JoDqPOxcDkjC9lYybxr8BHrKpyFR1UuIXtgJ2psjPBzsN7h51Z+0ONbVhD8+M3Gk+3AZEa1C2moMSGuD+j9c0GH9cHjacK9+fzAub6IElSIT+iU1oaEUX9ueL0Rh0DXPDxv2c4/lcleMZyfVfe/Oyzz552yCGHPGgVlfHzN62oJ9w+g5uLHqANgNL4+UTq5DMNuYAv5tqo8TrgPOBF3gqSCrVGncyV0c57CU7K/FJqcQSfSqez2qqqyKLGJOrsSuJFJF5I8GISL+Q2XkiFtd9q9seH0vq42RSUWDWjEwBtACzgh6/rQ6k1cX9GXzN1fZAkqYCGhoaWViqVwn6xuBHHABd9/G9KqcsnRyWQ7ZflpkyZsiPwG0uoXEVEdj8fqFQqhf/5WsVbSxoXJzRq89/fXgY6uZ06rfiLSUlFXKMWczLB9zK/jM2YxKFWU4V6iTueqbGQvaLGu6PGqVHjGuBhKlxL4gzg30n8I/AKYKoZkzbkw8x9dqk9nNEJXzb4uD5ofK12fZAkSRtm3rx5vwCuL+x2NqWD+/r6pjTUFm/16oMioqg/K7t5zpw5V/rkKPtX5XxPAATHACt/W2QYsw2AkjiP7figaYB0CrcA84E1ZkNS4azhWOCmvBdaahZSEyUgxUJ2jxoLo51vRI1f8TAPUOEy4H+AI4GXAZPMljQmD6ENPmV+l/oWD2f0HmWDT/G4PpTZaTwE2ZwB6PogSVJR3zlSOqPA4U0bHgPcSPU4rMDhdTn+V2VQr9ez/X1QROxkBZWr7u7u6UBzhmtG4ZuGbQCUxtb9wDtTR0bDmsb6paWTK0h82kxIKtz6dDr3A0dA1mv2G6LGC62mxkPMpzkW8dpYxPujxtnUuJMK1wJLCI4AXgo0mSlpvB5KG3wawKpM4myOI5hiuYq00XV9KHd5CeCBTMKdEvPz+yG/JEmNYGhoaGmhX3nXjgFuCGefffa0lNLcAofo+F+VwuDg4B9Z+z6VnYjY0QoqV5VKZatM4y5807ANgNLY+rfUye2m4Qma+U8KfJy8pMaVOukDvp7zJRAsspIaK7GQ3WMR74ka5zCTe0lcSuI/gYPJ88h2qUQfYtxmEkrv/mwi3ZiNLVeB1F0fXB8KZAvXB0mSisgxwMUxefLkQo//bW1t/ZlPjMrgoIMOegS4NdPwd7KCylVEbJlj3JVKxRHAUgO7mfvoNA1P8aJ2Iv0EnzETkgppMh/L+KUPEu+M45hsITUqL2LHMDMW8baocVrUuJkK15L4MnAA+MtbqWBv93eZhNK7P5tI1/gZ4fog1wfXB0mScuMY4MLUobDjfyPiB47/VZlExHWZhr6T1VOuKpVKjodJPDh79uzCT2exAVAaOyempQyYhqexPd8j5wYbSaWVTuQBgvdkfAlbsJrZVlLrK2rsEDX+OWqcxxB/JfE94F3Ac8yOVGCDNvg0gPuzibRug0+hrHF9KP9LTEbrwyTXB0mSCrulSKnQo10bYQzw2WefPQ1oK3CIjv9VqVQqlSwn1qWUnm/1lKt6vZ7jCOCbcwjSBkBpbAwB3zYNz7Ax6WAQ+K6ZkFTINWoJZwIr8r0A/sEqaiRiIXvEIj4RNX4O3AicCOwHTDI7UiYGudsklH2DwoPZxFq1wadIH/M86PpQevWM1och1wdJkopqzpw51wC/L+wrUQOMAZ4yZcrBBR7/e0NbW9tVPikq1QtzxPWZhj6jp6dnWyuoHFUqlRxHANsAKDWwK1Int5uGZ12BzjYJkgorcTwwmGn0h0QHTRZRzySOZLtYxHuixs+p8EsSnwJeaWakLD2QTme1aSj7wp3RCfOeAFgkq5xO0BDvLq4PkiRptPywwLGVfgxwRBR2/G9Kaanjf1W6V6mUrss4/BdaQWX6WZfdCOCU0i05xGkDoDQmKwAXmYR1UOdK4GETIamQS/lirgVOzzT8zbmV11lFPenF6lg2iXbeGTVW0sTNJL6MTX9SGXi6V0Ms4vRn9E68iQVzfdC4cn2QJEmjolKpLC30a1GJxwCfffbZ01JKhW1wLPqIaGk917w/5hp7SskGQGUpIrbPMOabsljTvL2kMVDnVyZhHTYmnawBfmcmJBXWIJ8EHs3zzdUxwHrcy8nR7Bk1TmeQOwj+F9jfdwGpVO4yBY3wApXVKW4bWTDXB40r1wdJkjQqchgD3NXVNbWMuS/4+N+/zJ49++c+ISqb++6770/AUI6xR8RuVlA5SintkGHYjgCWGlaFP5qEdWauJBV3E3oatwFLsgw+eHNAsoqNK45gSiziiKjxM+pcAfwTOHJNKucHlg0+DVLnfBp8gmYLVhiuDw2x8ctofai4PkiSlIFCjwGePn36nFJu6Yp9uqHjf1VKCxYsGIiIGzNdM3a3gsrUc3IL2BHAUmNbZQrW2X2mQFKhDfIfwOoMI9+RdvawgI0njmGXqPFFmrmFxDeAWWZFKvuDb4NPg9Q5pxGfTRbM9UHjqJLR+lB3fZAkqfBbC8cAj7uzzz57GuD4X2li7u/rM43bEwCVna6uriqwXW5xV6vVP2Wxh/MWk8biE5dHTMI65+phkyCp0MvU2lMAT80y+DqzrWDjiBqvjBpnMMT1wAeAzc2K1DBs8GmIhT6jE75sACxSLVwfXB+KpeL6IElS0Q2PAb6usFvclA7q6+ubUqacT5ky5WCgkNcUEX+eM2fO1T4ZKrHfZxr3Dr29vU78UVY22WSTbSG7nwsMVKvVm3II1AZAaUyWADwGe53fHMyVpAzUOQEYyi7uxL4WrwE+Smu8PtpZBlwFHOoeX2pId5qCBpDTCGCoWjDXB42rnEaEuz5IkpSHIp8COL2/v7+1TMku8qmGKSXH/6rUIuKaTENPEeEpgMrrpk3puRmG/ZeWlpbBHAL1l4OSJEnPtiE9hb8QnJNh6PvEcUy2guUTkKKdeVHjEuASggOBZGakhl0UHjAJDcERn1qPjazrg+tD4e5J1wdJkvLgGOBxUvTxv4Djf1Vq1Wr1mmxf+VN6uRVUTiqVyg4Zhp3NmHAbACVJktbpLZAvZxj1xqxhb4tXLlFjDu38jOBc4PVmRBKw2hQ0wgeADT5aD3XXhwaRz/oQrg+SJOWgra3tlxR4LGZK6eCurq6pZcj15MmT30yBx/+2tbU5/leldv/991+b1TvV41/56/WXW0FlJrsTACPCBkBJkqQySSdzIfC77AIfYj+rVw7RzqyocR7QS/AqMyLp/z6kbPBpkDoPZhSrDT7F4frg+lA0rg+SJOXjzALHNm369OlzSpLnwwocm6f/qfQWLFgwAFyb5atgSq+wgspMdg2AlUrFBkBJkqQSOjW7iCvsb9nyFu08P9r5AcGVYEOnpKdaKHjUJDSESRndk1XLVZi9oOuD60PRuD5IkpQPxwCPse7u7unAnALn2AZANYprMo375R0dHfb8KBsR8fwMY7YBUJIkqXQqfAsYyGtnyqw4kmkWL8MXoRozosaJBL8lWAAksyLpaXjCV2NozibSxJDlKogh14fG2DhmtD7g+iBJUi6GxwBfV9jXjpQO6uvrm5JzjlNKB1PQ8b/AH+fNm/cLnwQ1xCtVxDWZhr7Ja1/72udZQWUkuwbAoaEhGwAlSZLKJp3MnSTOzSzsJibxOquXl1jEoawdO/DP5HWii6QJ+YCywef/t3ffYXaV1eLHv+85MymUFIpSLVSRIipNRTGaZEoICJix/VQIZEIRu171KnewXPtFRSGZBETx3qsJqBiSORMiAa6FAAoI0jskiCQQE0omM+e8vz8yRJAkpEzZ797fz/PwgAq49lp7r733Oe95V0HqnM4Cn5oLfOwPGtiHRxcIS5Kkfrp1h5DlHeBGdHV1NSSe4pYMx+bufypSr0t2sWutVnMMsJJwww031AOvTCzsp5qbmx9KJVgXAEqSJG3S2xQ/Ty7myJEWLpFSTWaX2MolBC4BdjEjkjaKC3wKcpNIaoFPjwWzP2hA65xOf4j2B0mSUlKr1RwD3E/mzZs3IoQwLqvxlUql2V4BKlCvuxmISb4OhnCwFVQKHn/88T1Ib8OL20IIyfQGFwBKkiRt0tsUlwNPJRbz2yxcthL+5IoAAFSBSURBVMU2SnEqrdRxO3CCGZG0SWo8axKKcLNwhy/ZH7Re9gdJktQvmpqa/gLckdlHixCOmTVr1vAUc1sqld5Fdsf/3jt+/PibvAJUFM3NzSuA+1KMPcboDoBK5b63d4Jh/zWpHHuaSZIkbbzQzjPA5Wm9AXJY/ATDrV5Gy9PKK1jMNUSmAyPMiKRNVqPLJBThIcQRwNoM9fYH+0Pm2B8kSUrtUSOESzIc3rYjRowYn2JeY4zvznB4v/DMV9HEGFMdA/zGGGOwgkqACwD7mQsAJUmSNlXg0sQiHsqzHG7hsidO4TjgJgJvMRuSNlu9O3wVRDoLfEqO+MyMLkcAF+Oh0hHAkiSp/zgGuO9dccUVI0MImV246PhfFdSfE417x87Ozj0tnzL/cUCMyS0ADCHcllK8LgCUJEnaVGUqkNhuKjXeauEy9KJzIsNiK9/vXUw62oxI2sL7kgt8iiAktcDHXeeyYqgLhIvxcGl/kCRJ/ad3DPDtmX1VSnAMcK1WexcwNKPh3eX4XxVRqVT6fcLhv8kKKgH7JBjzrUn1Mc8xSZKkTRPO4yki1yQVdHQBYGZK0cprGMK1wEcBt+aXtOVq1ExCEW4gSY34fMaCZUTV/lCMFxT7gyRJ6ufHjRCyPBEluTHAGR//6+5/KqQhQ4ZcB8n+YMkFgErhWeI1iYW8Yvz48Y+kFHCdp5kkSdJmKDGHyLh0nqw5LLZRCm1+CTyY4lSOJ/JTYGuzMeBWA0/3/rEaqBH4BwA1niCwvB/+P/cDDjD16nerfLcvxk2EIQktG3eBT1bU2x8KwgWAkiSpX9VqtdkhhC9m9nVpzRjgy1LI5cKFC0d1dXVl+XNlFwCqkMaMGbOqo6PjhhDCWxIM3wWAyrR58+btGGPcNbGwbw0hxJQC9kNASZKkzVHlckr8IKGIR7KY/YC/WrzBEVv5LJGv4y7cfe0J4AECDxJ5AHiIyDJgKWWW0cPj1FgaLmTlgNd8CmcRXACoARCoNwmFqPM2CUXrAp/MPIDYHwrC/iBJkvpVU1PTXyqVyu2s+bFj9l6XescAt7S0PJv1XK5evfpYMjz+t7Gx8WbPeBVVCOH3QIoLAA+cN2/eiObm5hVWURm9tt6QYNh/Ti1gFwBKkiRtzsPqTO6PrfwV2D+hsA/HBYADLrZST+R84GSzsdmeBW7vPX9vJXIHgfvp4YHBWNi38Y3C9y0N2Ju951oxjE4oVhf4ZMVq+4P9wf4gSZL6zCXAlzIa23NjgDO/C2DvboVZ9QtPcxVZjPH3IYQUQy+Xy+VDgCutorIohHBwgjHfmFrMfggoSZK0+eaQ0gLAEkcAF1q2gRNPYzQ1LgHeYTY22qPAIuAGIrdR4xZWcH+YTTXBY3HXJXmuqS+NSibSGs9aLvuD7A/rVGd/kCQpVdVqdXa5XM7qAsAkxgBnffxvtVp1/K8KLYTwO6BGmlN83oQLAJXde/TBqS2uDSG4A6AkSVJhlLicGp9L5wmbwy3aAKb7NPagyjxgX7OxXt2s2UZ9EYFr6eEP4QIezM3RBeqIFlkDoOy7fUGktMPXSstlf5D9YZ267A+SJKVqwoQJt1QqlTuA12QxvhDCxIULFw4bM2bMqqzmsHf875CMhnfnhAkTbvFMV5E1NjY+0TvufP8Ew3+zFVRWhRBel1jIXcuXL78ttTz7IaAkSdLmWsa1jGYpsEMiEe8fT2ebcB5PWbz+FU9hP6pcAexqNl7kLiKXE5lLD38IF7Eqx8fqrksaoKbjuVYQ6SzwGcJyy+W9SAN1CyCQ1g6A9gdJktI2m+yOAR7R1dXVQLZ3AWzJcGyO/5VYOwZ4/wTjfusNN9xQf8ghh3RbRWVJZ2fn1jHGfRK7nm5paWlZnVquS55ukiRJm6d3JOmChEIu08OhVq6fXwymcDAlrsbFf8/pBn4LfJLAPqGdfcMMPhVmcmXOF/9B9AdXGjAu8Mn7veV0tkmozt3+2MD+oAF0JtuSzo+8u0I7z1g0SZLSlfURsb1jgDNp4cKFo2KMY7MaXwjB8b/Smmvh94mGvu2yZcveZAWVNbVa7SCgnFgfuDHFXLsAUJIkaUtErkgsYscA9+fp0MqBBBYAOxb9nQ5YQOCDwI6hnbGhnXPCdO4uWB5cdKGBuuK2Ngm5l9L43+WWy/6gAfSM/UGSJA2c3hGxd2Q1vufGAGcxtlWrVr2L7I7/vaOhoeFWz3AJQgj/l3D446ygsqZUKh2cYB9wAaAkSVLhROYnFu8RFq2fUnsyewGdwPYFTsNdwNnU2Cu0My5M52ehnX8UOB/uAKiB6u3bmoScW53UAp8nLFim2B/yrmR/kCRJAy7LO8U9NwY4e49tpdIkayplX0NDw/3AQynGHmMcbwWVwfMyuZ0pa7XaDSnm2gWAkiRJWyDM5BEy/KvXFwfsDoD98gJzKrtS5kpg5wIe/kqgnchbQjv7hnbawkzu96zAEcAayDf7ESYh7w8cCS3wiYVe+J3Fc8f+YH/IUqz2B0mScsAxwJsu6+N/gV94Zksv0Jlo3G+sVCrbWT5lzFsTi3fVypUrb04x0S4AlCRJ2lJpjQHeKZ7MKy1aH5Z/MttSYy6we8EO/VHg86zmFaGdqWEGf/BseBFHAGug7kPu8JV3JUYlE2twhy/7gwa4xun0h5r9QZKkPOgdA3x7Zl9JQjhm1qxZw7MUU1dX13FkePxvY2PjXz2zpRdIdQFgGRhj+ZQVc+bM2RV4VWJh39DS0rI6xXy7AFCSJGnLn6iuSCreOscA95XYRh31zAZeV6DDvo3IyQzl1aGdb4SLWO6ZsB7BHQA1YOeaO3zlXS2pHQD/bsHsDxpQ6fSHkv1BkqQcyfIugNuOGDEia2MwMzv+N8bo7n/Sv6jValcA3Ul+DBDCOCuorKirq3tbajHHGK9NNd8uAJQkSdpS3VyV1MtgdAxwn1nCN4g0FORorwGOpp0DwgwuDOfS5QnwElwAmD89xIz2dXf4yn8/eVlCsf6tkDUqZbQ/YH+wP2TqfvU3CyZJUk4eQUJwDPBGuvzyy0cD78xwrmZ5Rksv1NzcvAJIchFQjLHBCiorSqXSkQnGvCjZfHvKSZIkbZlwISsJSb0MugNgX7xIT+V44JMFONTrCRwT2jkqtDM3kNkFDlnkCOC8cYGPBs8rEoq1mAt8yvYH2R9e+gHaBYCSJOVFQ0PDrcBtWY0vS2OA6+vrMz3+t7m5+TbPaGmdfSTVMcCvqlQq+1tBZcRbUwu4Wq26A6AkSVKh1ViQULSvj5My+6FTEmIrryHyEyDk+DDvIzCJdg4P05lj1TfnRHEHwNwpUc1oZCMtTu77yW4JxVrMEZ+r7Q8aNOn0B0cAS5KUN5dkOLbMjAHO0m6E/yqE8HNPY2m9KgnHfrzl02C7/PLLR8cYU1uMuqS5ufmRVHPuAkBJkqS+UOaahKIdxiheZ9E2TzyTocD/ANvk9BCfBdrYmgPCdC5xx78tMtQU5Ex3ZkcA72hxci6we0LRPlbQZ8GY0XPH/pB/6fSHakH7gyRJeX1NcQzwS6pUKtuR4fG/1Wp1tmeytG7jx4//M+l+xnGcFdRgq6+vfwuJrUmLMf4h5Zy7AFCSJKkvDGcR0JVMvIHDLNpmWsV/Aq/P6dEtoMwBoZ2zwzk8a7G32GhTkDORWkZ7ugt88i+dBT7lgo74rGW0P7hA2P5gf5AkSf3EMcAb8Tge43FAfUZTdKvjf6UN9pAIzE80/NcvWLBgD6uoQb4HvjO1mEul0jUp59wFgJIkSX3xMngOzxK5IZ0nbxcAblbapvI2Ah/P4aGtBE6lnfHhfO6z0n1mO1OQM0MzusAHXmZxcnzv+QTDgR2SCXgVjxSzUPYHDcJp90G2BrZPJuAhBe0PkiTl+XkkxizvIDfoY4BDCJMynB93/5Ne+hruTDX2arV6rBXUIGtOMOaFKSfcBYCSJEl992SVzi9DAodasE0TP8FwIjNy+Az9B6ocGNqZ7rjfPucCwLx5llUZjcwdvvLsKfYAQiLRrggXsbyQdQr2Bw2C4aS0o8OT4VxWWDRJknL2GOwY4PW6/PLLRwNjspqbcrnsAkDpJaxevboTMvuDv5fqf44B1qDp3YFyn8TCfnz8+PF/TTnvLgCUJEnqKzX+L6Fo942tjLRom+BpzkrwhWWDnwEA32IXjgoX8KAF7uPkTmIIsI2ZyJkensloZCPjmQy1QDkV2DuhaIt7P6lltj+Miq2ZHTkm+4MkSUpcY2PjX3EM8DrV1dWdAAzJaF5uGTdu3O2ewdKGTZw4cSmwKNHw31KpVHa2ihoM3d3dR6cWc4zx6t7R38lyAaAkSVJfGcbvgWoyz4GBQyzaRj74n8a+wCdzdEj/ACaGdv4ttNFjhfvBSEabhBxaldkdvuBZd/nKsZQW+DxU2Cq9gmczGlmgx/5gf7A/SJKk/uMY4PXmZZI1k3LR436VaOilEMJEK6jBEEJw/O9gXPSeepIkSX30QLtmpNXN6by5OgZ4o1X5Hhn9xe5muIcabwrtzLWw/ajM9iYhh31+NlWgK5PB1bnAJ78nXkILfEJxd/jqXVDfncng6u0PuVVLqD9EdwCUJCm3z8KOAX6RBQsWbB9CGGPNpPSVy+Vfpxp7jLHFCmqgdXZ2bg0cleDzzNWp594FgJIkSX36hJjQGODAYRZsI16SpzIRaMzJ4VxDlcPDTBzx0e8nDq82Cbn1bEbPuZdbmtz2k5TGzxd9hy/7gwZWKaH+EFwAKElSXjkG+MV6enqOA+ozmpK/NDQ03OGZK22c8ePH3w3cmmj4Yzo7O3e3ihpItVrtncCwxML+e0NDw22p594FgFL/XFleWxuv3hRIypXI7xOK1QWAL5WiNkpE/jMnhzOHrWkMF/CElR2Q62svk5BbT2f0nNvN0uRWSjt83Wd/sD9oQGtrf5AkSdm41TsG+F+9O8P5uMQzVto0IYRfJxp6CfiAFdQAXy9NCYb92xBCTD33LlKS+ufK2sYkbLQRpkBSrlS5LqFod42T2cWibcCjvB84IAdHcjG7cHw4J6M7E+XyLdcFgDm2PKPnnL/mzaF4BttDQvfqyN32B/uDBuhyO4kdgZ2SCbhc+P4gSVKuOQb4nxYsWLA98I4M52KWZ6y0yT3u0mTfHWP8kBXUQGlraysBxyR4nczLQ/5dACj1hxo7moSNZq4k5etF8AIeBB5LJuA6dwFc7wN/G3VE2nJwKBezCyeGNnqs6kA2g4R25NGmejKbTcsFPrlU5cCUbp3Uc4/9wf6gAVJOqj/UGM69Fk2SpPxyDPA/9fT0HE92p1/d3NTUdKdnrLRpxo8ff1OWe9xL2K+jo+NQq6iBcMQRRxwFyW08Uq2vr+/IQ/5dACj1hzL7mISNtq8pkJRDKe0C6Ivf+jzKJGDPxI/iUnZhcmijZkEHWHQBYG6FjO7whQt8cqnGwQlFuyScx1MF7/3Z7A/uAJhP5aT6w8PuRC1JUgEehx0D/JxJWU1C1ndqlDLuF6kGHkJwF0AN1LPAexOM+dqxY8cuy0P+XQAo9Ycah5iEjWimJzKK9BdWSNK6LEooVncAXO+Nis8mHv884H3u/DcIqW+lHniFmchtb1ie0chc4JPP8+2AhGJ1vKcLhGV/WB/7gyRJBVAqlX6e6cenARgDPGfOnB2AMRlOw6WeqdLmqdVq/51w+O+fN2/eUKuo/nTDDTfUhxBOSDD0ubl5FvM0lPpB4B0mYSMM4e1A2URIyuF9IKkdAGObz4T/Kk7lnZDUrir/6iaqvDe00201B8WBQJ1pyGuDyOiITxf45PWZ4qBkYi25wAcy2x9clG5/GGz2B0mSCqChoeEO4K+ZfXwagDHAQ4YMOZ7sfiZ0U2+NJG2G5ubme4E/JRr+duVyuckqqj8tXbp0PLB9anHXarXL81IDv+yV+sc+cUrSiwYGRqTFJEjKpS6uB2Ii0Y5kiaPr13GPmpJw9I9Q4uhwISst5KCdP0eYhBwLPJ7RyLaKZ6T3AYs20EraqIOkdgC83apltj9sHU9mO8uTo/7QSj2R/RMK2S+aJUkqyitztkfM9vsY4BjjuzNcm0s8Q6Utvo6S3QUwxniSFVQ/e0+CMT88YcKEW/JSABcASv32BMDJJmEDDxlnsD2BY82EpFzeAi5iOXBXOk2ZQ63av9yj4F2Jht9NjUlhGout5KA+B7oAMNdNgr9lNraqu3zlyt84EBieTLyBWy1ahvtDyf6QKzUOAoYlE2+Jv1g0SZKKoVqtZnkBYL+OAc76+N+enp7ZnqHSllm9evXFQFei4U+YN2/eblZR/aF3h90U137MzVMdXAAo9Z/J8VReZhrWo5uPAVuZCEk5ls4Y4MBhlusF96j3AUOTjD3wuTCTay3ioDvcFOTao5mNrMq+lidHYmK9pMwt1izD/aFkf8iVYH+QJEnZ1NzcfBvZHgM8ceHChf3yQ4r6+vrjyPD43wkTJtzlGSptmYkTJy6NMf4q0fDLIYRTrKL6w4gRI5qBEanFHWPM1e64LgCU+s9W1PiKaVhHIz2VXYGPmwlJObconcbsAsB/8e4kow5cznTOsXyDfDmt2UFybzORY6VM7/C1nwXKlZQW+DwezsvwtTFQyhnOQbQ/2B8GzZLwI5ZZMkmSiiPjY4BHdHV1NfTTv7sls68DMc7yzJT6zMyE+3PrDTfcUG8J1Q9OTDDmv61cufKqPBXBBYBS/zoltnKkafjXNw3OBbY1EZJyLSS0ADDwujiJIRYN4knsCEneu5+izOkBolUcZD0cDgQTkWNVF/howOqZzgKf4O5eANQy3B+C/SFn7xr2B0mSlN3X5gKOAe4d//v2rB5zuVy+xDNT6huNjY1XAvcmGv7Oy5YtO9Yqqo/vgbsCTQmGfmlLS0s1T7VwAaDU/9fY//TuBCMgtnIGkePMhKTce4K/AKsSiXYoo3idRQOGcAxQTjDytnAeD1vALDzs8A6TkPsn/MeAWkaje60FykkrOZFRkNTIVhf4ADzJ38jqYvxof8hNfziN0cA+9gdJkpRVCYwBPmbWrFnD+/LfWVdXdwLZHf/75/Hjx9/tmSn1WQ+JwIXJvlPG+FmrqL5UX18/mQS/V4sx/jxvtXABoNT/dqeb38RWtip6IuIUmsDRhJIK8hI4m9XAjekE7BjgNTcrxiUY9W3swvctXmZMMAU57+/tdAOPZjS8vWNbZr9w0Kao502k9ZnNzRZt7fNfVncBtD/kRZU3k9Zuw/YHSZKKKcsjZ7cdMWLE+D59Fwjh3Vk92Biju/9Jfe/HQE+isR86f/78t1hC9cnNftasMjA5wdAfWbRo0R/yVg8XAEoD483Ab+Lk4o69jVNoIjAbqPd0kFQYgetSeukrernimi9Sj0ow8K+EtmQ/bMjXOXQyewGvMROF8GBG4xrCY+xpeXKglNhuolX+ZNHWPv9ltT8MZTF7WKBcPLS+I7F4b7BokiQVT7lcLswY4Hnz5u1Ihsf/hhBme0ZKfauxsfFRYG6q8ddqtU9aRfWFbbfd9ljgVanFHWOc3dbWVstbPVwAKA2cd1LH1bG1eF/IxVY+QuAyYGtPA0kFsyihWN0BsJV9gZ0Si/p2ds30L6qLpeTufwXyQGYjq7Kf5cnDS1RSC3yeYTdus2hra5fd/lCyP+RC4J0JRbuSXbjLokmSVDzjxo27Hbg1s49UIUxcuHDhsL74d5XL5ePI8PjfxsbGezwjpX4xI+HY31WpVPa3hOqD++knEo3753mshwsApYH1euBPsZVTYlrjWjZLPIXd4hR+DZyLO/9JKqKY1A6A+8ZWRhb7TYU3JRjzN0IbNS+2zHABYHH6xYMZju61Fijxx4eT2Q44OKGQb3In2hc8/2W3P9TsD8mfXq3sAByYUMh/9llVkqRCy/LOcyO6uroa+uQxu1Z7T4aP0x8OS/1kxYoVFeChRMMvxRi/aBW1JebPn38IcGSCod/Z0NBwfR5r4gJAaeCNBGYwhWvjVJrzuBAwtrJDnMJXKHE7gWMtuaSiCu3cCzyezHNhjTcWumA1Xp9YxMvZCkd4ZOX5ZzLbEhIcIa3NLHiGF/hEd3RNXh1vJ63Paxzv+YIHwAz3h2B/yIEx9gdJkpSKIowBnjdv3o4hhLdl9RhrtdolnolS/2hpaakCM1ONP4TQMm/ePH8oqM1WrVb/LcW4Y4wXhBBiHmviAkBp0O6qHEZkLq3cEVv5UmzlDbEt3WsynsboOJXjYyv/CzxE4IvANhZakhLaBbBU8C+FQ3ILAP83nMOzXmIZUeZdwBATUZh+cV+GYzuyCLuN51pa438h8CeL9oL63Zfh6OwP9oeBjtcFgJIkFVgRxgCHEI4nu+N//9Tc3HyvZ6LUf+rq6s4Dnk40/FKpVDrLKmpzzJ0798Dee2Bquuvr63+a257kqSkNun2ALwNfZgn/iK3cAdwPrACWE8nm6uMSw4hsC7wc2Icqe+KiYkl6sch1hETGgrorzEGJnVs/9gLL1PXzYZNQqN5+Z4aj256p7Md0brNQyWpK7llH/1TmzgwPPN2BU3gNM7ndQiX7vJFWf6izP0iSJGYDB2Q0tufGAF+2Bf+Olgzn3vG/Uj8bO3bsso6OjgtDCGcmeggt8+fP/8748eP98ZY27XW/ru5LMcYU14bMGTt27GO5rYunppQpI4HDe/9YI6u/zY8WS5I20qJkIo0cWtQixZPYERiRUMiPMsMdVTJz/pzMK1kzkk9F0c7DtPIU2d3x+khwAWCS/eRUDqDGHgmF/DjtmV4QO/B24iGW8AywVSbjCxwJLgBMsj9M4WDglQmFvDicn+kdMSVJ0gAol8uzq9Xq2Zl9xlozBnizFgB2dna+LMZ4VFaPra6uzvG/0gAolUrnxBhPI821N6FWq30LEtttXoNq7ty5B8YYT0g0/Atz3Y88PSVJkvpRN4tIZ9n0bnEyuxSyTvVJLbYAmBtcjp+lt6oP+25VLL3X3z2ZDTBypFVKVI1jkoo3crX3o3/pD23UMt0fsD8kfPOZmFjEV1s0SZI0bty420MIt2T2ESuEY2bNmjV8M//xE4ByRg/t+rFjx/pjDGkANDQ03A9cmvAhjKlUKhOspDZWXV3dN0jw+5AQwuIVK1ZU8lwbv6SSJEnqzwfKi1gO3J3Ok3tBxwBHXp1YvBWvrqyUgkDgQ2aikO7IcGxvtTzJOjqtBx3+z5KtMy93ZDg2+0O6Dx32B0mSlOZjTIyzMxzetiNGjBi/Of9grVZ7d4aPy93/pIF8/Qnh24kfwrdvuOGGeiupl9LZ2fmOGGNzos8jF7W0tFTzXB8XAEqSJPW/RQnFWswxwIGdk4q3h2u8rDLiFI4E9jQRhZTlsaeviqewmyVKSzyVlwGHpxW096P15CXL/eHV8VR2tUiJnVKnsxOBQ5IKuuYCQEmS1PssE+OsjMc3aVP/mXnz5u0YQnhbZh/FarVLPfOkgdPQ0PCnGOOVCR/CfsuWLfuYldSGtLW1lWKM30o0/J5yudye9xq5AFCSJKn/XZdQrIcVtEY7JBTrI+HHPO5llZk3qpNNQkFFbsn4ufk2i5TcOTWRtD6nWc6u/MXCrdMtGT/X7A+pqXJMYv1hKTO4zcJJkiSApqamOzM+BnjiwoULh23SK3epdAJQl9FDur65uflezzxpwHtJ0rsAxhjPmj9//i5WUutzxBFHfBh4Y6Ln9yXjxo17KO81cgGgJElSvz9ZJrUD4CERQgGrtH1Csd7oRZWRS/sMtgfeYyYKqsbNGb/3HG2RknteeG9iEV8T2qhZuHXW0v6goveHqwNECydJktY+zmR7DPCI1atXN27iP9NiriU9X0NDQyck/UPJbWu12nespNZlwYIF2wOp7v5HqVT6XhHq5AJASZKk/racm4FViUQ7itPYp4BV2i6ZSLO+qKBIupkMDDMRBbU79wFPZTa+QHOcxBALlUhrP52dgDFJBR3osHLrsSv3AE9nOMIJ9oeE+sNkdgGOSizsipWTJEkveKbJ0RjgBQsWvBwyu6t2BFwAKA2CEEIEUl9A975KpXKs1dS/qlar3yStSVrPv8f/vqGhYVER6uQCQEmSpP5+8ZvNagI3JRNwTyHHAKeziKvEA15VGXhpbKMEnGYmCtzb1+x8luUxnyPZjndYqWTuve8FymldBC7weYn+cGum+8OoxBacFlkd7yO1z3Dr6LRwkiTp+bI+BhjY6DHA1Wr1+Ay/v13f1NT0gGecNDh22GGHnwOpj+A+d968eSOspp7T0dFxZIxxcqrxF2X3P3ABoCRJ0kBJ59cloYALAENCu+DUeMTLKQOW0AS82kQUXPbHfB5nkZKR2njP28M0F6S/hKzv2PsuS5SM9yQW7y3hPB62bJLW8d5dZxKkgr9CZ3s07bYbOwY4xtiS4eOY5ZkmDZ5DDjmkO8b41cQPY/dSqfRNqymAOXPmbBVCuAAIiR7Cg0OGDPl1UerlAkBJkqSBkdL20ocWrjoxqTF4LgDMxjlzuklQAru7HtO7W6Wy3E5a2RMSW3wfHf+7EbLdHwLH2h8SuNSmsneCz+b2B0nrM9QUSAV/tsnBGODe8b9vze4hxEs906TBtXLlyouBuxI/jKmdnZ3jrKaGDBnydWCfhA/hnDFjxvQUpV5+0CdJkjQQItclFO3BcVJSC+L6QjpjF3v4uxfUIF/OrexJoNFMiJj5xd078TfeZKEy78Ok9ytaF/i8tKz3h515lMMtU+bvMycmGLXjwSWtzzBTIBVbU1PTncBfMhziS44B7u7uPoHsfo54neN/pcHX0tJSBc5O/DBCjPGiBQsWbG9Fi2vevHlHxRg/kvAhLFmxYkV7kWrmAkBJkqSB0M59wNJEoh3KKF5XqPoE0vkFUA/PeEENuo/6LiUAduVWyPg1GR3zmenytFEHTE4s7OUs5xqr95JuAZ61P2gL+8NJiYX9BPA7qydpPVwAKCn5McAhhEkZjn+2Z5iUDddee+3PgdsSP4xdenp6plvNYqpUKtuVSqWLSft7kK+3tLQ8W6S6+aWVJEnSAAgQE9sFsGhjgLuTiXQVq7yiBk9sZWdgipkQQGijh8Cfsn3SMskxnxm2mGZg18SivizMZrXFe4n+0E43kT9nPMwW+0OGLeFoYOfEov51aE/ouVrSQD+XugBQEmR8kdqGxgDPnTt3JzI8/rdarV7i6SVlQ1tbWw34Qg4O5YRKpXKKFS3YY3uMAfgxsHvCh/FwrVabUbTa+SGfJEnSwFmUTKSBw4r1RpPMDoCrw2yqXkqD6jPAcNOg5/WPrC/ufiWLabBQGVVKckGxu0ps/PNU1vvDq1jMOAuVWa0JnvP2B0kb6hEjTIKkFMYAz5o1a52f+5TL5XeT3fG/106YMOFBzzApOxobGy8DFubgUM6tVCpvsKLF0dnZ+THgmMQP4z+bm5u7ilY7FwBKkiQNnEUJxVqsBYDBnYz00uIpvByYaiaUXG8PCS4iKUJPOZ3diTQlFvZynuQKq7fR1579QZvXH1p5BTA+sbCfIPJbqydpA3Y2BZIg+2OAR44cuc4f0YUQ3p3hnLr7n5RBtVrtC0BM/DCGAb+44oorRlrR/Js/f/5bgG8mfhgPrlix4sIi1s8FgJIkSQP2tsf1Cb3s7RvPLNCv8yMrEol0SGyjzotp0N6e/g3YykToX/wugd5+dJzMLpYqY7ppJbu7R6yP4383ReB3CUQ5MZ7OThYrc6Ym2B8c/yvppWwfJzHENEgiwTHAc+fO3SnGeGRWQ66rq3MBoJRBzc3N18YYL83BoexVrVYv6h0Nq5yaM2fOrrVa7RJI/pn9qy0tLYX8/NIFgJIkSQMkXMATwN3JPCc+yyGFKU46CwDhIcfPDsopchr7AmeYCb2ot7fzKHB7xsOso46TrFaGesrpbEPg9PROeGZZvU1I1zQWA3dkPMx6uu0PmeoPk9kWOC3B52n7g5QtPZl8khjtonNJa8cA35zhECcuXLhw2PP/i3K5fAIZHv87bty4hzyzpGwql8tfgFz8mPJdnZ2dX7Wi+bRw4cJh9fX1v4Tkn9dvXrFixY+LWkcXAEqSJA2s6xJ6UizOGOCQ0ALAkjvQDYoq54C7VWi9rkwgxtY4KbndpPLcU1qB7RKL+jGi43834xnjygRinBLb/IwwM+poBUYnFvVilrPA4kmZsiqTUdXclVpS7yNoCJkeA7x69erGf4l3krmUtDnGjx9/N/C9nBzOFzo6Ok60qvnS1tZW6urqugjS/04wxvjxlpaWalFr6Yd7kiRJA2tRQrEeWpiqRJYnE2uZ7b2MBvj0mMIxQJOZ0AZ6SAoLAF/BdoyzWBk4XVqpJ/LxBEP/ieM9N0Mtif7wapYw1mJloD+sGY2ZYn+4OMymagWlTMnmAsAye1kaSQA9PT3JjAGuVCo7xxjfmtVQAcf/ShnX1dX1VeDRPBxLCGF6R0fH261qfhxxxBE/BN6Tg3NzdlNT01VFrqULACVJkgZSTGoB4GEFqsxjyURa45VeSAN4yX6C4QT+y0xog+q4ChJY+BATHCmZz2eBDwC7Jxj5jy3eZt23FwK1BCK1P2TBdnwA2C25rhbtD1IGdWX0vniApZEEMGHChLvI+BjgWbNmDQcIIbybjH6nHmP8Q0NDw8OeUVK2HXvssSuBz+XkcIaEEC6bP3/+IVY2fZVK5avk4DOhEMKztVrts0WvpwsAJUmSBtJybiarv8R/sd3i5IKM5ynxt4RidQHgQHqGrwN7mghtSDifJ0ljxPvEOIX9rdjgiZMoE0jxw6g/hHbusIKb0R8u4Ang+gRCPSaewn5WbJD7Q0yyP/w+zOAuKyhlTlY/dzjQ0kha+6yc8THAI0eObACIMb47wzl09z8pEQ0NDRcDf8jJ4Yyo1WqVSqXi54wJ6+zs/Hfg3/NwLDHGbzc1NT1Q9Jq6AFCSJGkAhdmsJnBTMgHXF2QMcExoAWB0AeCApXoq7yTyUTOhjWvwXJZElCE3vzZO02hOgiQXWbm715bdu1PoDyX7wyAbxWTgNQme3/YHKZtPfasyGpcLACWtlcAY4BMrlcoY4Mishlir1VwAKKXyeBZCBE4HunNySNsD8+fPn7+31U1PpVI5O8b41ZwczsPd3d3ftKouAJQkSRoM6YwBjgUZA1zPkoSi9Vd1A3Hqn8io3i+0g9nQRr5d/zqRSN8bT2MPCzYIfeWDbA18OcHQ/0EPv7CCW/Q8lUZ/CLwvnsqrLNggnCKnsw2BsxMMfTn1zLKCUibvPV0ZjWz3eAbbWyBJkMQY4GOBK8nu9+l/bG5ufsQzSUpHY2PjzcC3c3RIu9RqtavdCTAtlUrlG8BZeTmeEMLpEydOfMbKugBQkiRp4MUkxkQ+F2shdgAMP2IZsDyRcA/zIhoAQ/gRsLuJ0Eb3kfO5E7g9gVDrqCa5yCR9w/k0sHOCkc8MF7LSAm5Bf5jJ7cCdCYRab38YJD2J9ofAzHAeT1lAKZPX56rMxtbDGAskaW27yvYY4KzzhxhSgmq12pdJ4zPEjbUz8H+VSsXvLTJu4cKFdZ2dndOAf8vRc8TPGhoaLre6a7gAUJIkaeClswNg4LDYVphnxvsTifPl7s7Tv2IrZwDvNxPaDJclEucH4im80XINYF+ZzC7AZxIMvUqNH1nBAvWHwP+zPwxKf/h0kv2hynlWUMpqc8nsDoBQ450WSNJzsj4GOMNqtVrtUtMgpae5ubkLmArUcnRYo4HOjo6Ot1vhbJo3b96IVatWzY0xTs3RYf29XC5/3Or+kwsAJUmSBlo79wFLE4l2JI+xdyHqErk3mVirHOGF1E+nwam8BTjHTGgz37BT+fV9oMy3LNgAqudrwNYJRv7rMDOZBfJZv+pS+WKzRIlvWLABVMd/JtkfIr+yP0iZ9o8M3xPHWR5Jz+kdA3yTmdjER7EYHf8rJayxsfH/gPNzdlijQgidlUrlQ1Y4Wzo6Ol5VKpWuCSGMz9m98CNjx45dZoX/yQWAkiRJAyxATGoMcK0YY4AJSYzmey7WZq+kfnhhnMwu1LgEqDcb2qxLcxo3AremccLzjjiF46zaAKR6Cg1EPpxo+N+zgn3UH6ZzA3BbIuGOjVM51qoNQH+YSiMk2h8C37eCUqZl+UeHe8bT2MMSSXoedwHcdI7/lRLX3d39WUjoO4mNMwS4qFKpnB1jDFZ58M2fP398COEG4HU5O7RfNjU1+fzwL1wAKEmSNDjSGQNc47BCVCRwS0LRHh1bXaTWl+InGE49lwI7mQ1toYsT6nvnxjMZYcn6sbecyQgCM4AUP/RcFNr5nVUsaH+I/DBOZltL1o8pbmUkkfZU32XsD1Lm+/jjmY6vh/dYJEnPKZVKfoG/aWo9PT2O/5USN3HixGdKpdL/A7pzdmgBOKuzs/PXCxcuHGWlB+l1IMbQ0dHx+VqtNg/YPmeH90S1Wj3DKq/jmcoUSJIkDcpTWDo7AIaCLAAkqQWAowm8zQupj16GJ1HmaX5GdLSy+kAPPwOqiUS7K118zaL1oy6+C+yeaPRfsYB9/vx3cUL9YTfq+KpF688HkIT7Q/TckBKwNNPRBT5oiSQ9Z/z48XfjGOBN8fuJEycuNg1SLvrfDSGEs3N6eMd0dXXd1NHRcaiVHlgLFix4+fz58y8PIfwnUM7b8YUQTp8wYcLfrPSLuQBQkiRpMPRwHRATifZ1cRJDcl+TnbkL6Eom3sj7vZD6Io0ERjMDON5sqC+EC1lC5MqEQj49tnKkleuH/jKFscDJaZ7I/Il25lnFPk7rNBYDVyUU8kfiqbzFyvVDf5jKOAKTEw3/z8xgrlWUMu+xjMe3X5zKIZZJ0vO4C+DGvleEYK6kHPnHP/7xDcjtDuuvLJVKV3d0dJzuSOCB0dHRMamnp+e2GGNzTg9xWkNDwy+s9Lq5AFCSJGkQhAt4Arg7kXCHsR0H5b4mbfQAf04o5PfFM3K3dfvAa+UbwEkmQn1semKfC/wsnsgoy9Z34unsROAnpDn6F+ArIZ0fKiR2ciQ18rVEjZ/FVkZauD48BVrZmchFyfaHwJftD1IC6ngwgXviiRZK0toHT8cAb6xaCMHxv1KOtLS0VGu12vuAx3P5Dhzj8BDCjzo7O+fNnz9/FyveP+bOnbtTpVL5eQhhFrBdTg/z5hUrVnzSam/gecoUSJIkDZp0xgDXCjMG+NqEYh1Od6I7S2VEbOU/gM+aCfW5XbkMeDihiF/J0KQWLWa9t9RTZRaQ6oeaNzGd31jJfhL4FZDSuK5XAdMsXB/2B5LuDzfbH6REbjfn8ySwIuNhnhRP5WVWSxI4BngT/H78+PFLTIOUL83NzY+EED4A1HJ8mI21Wu0vnZ2dH7Difaetra1UqVROLZfLtwPvyfGhLgshHNfS0vKsVV8/FwBKkiQNnkUJPTUeWpCa/DGxeE8vxHjmfhCn8A2gzUyoP4Q2eoicn9ZFQUucSqvV6xPfIfLWhOM/2929+rE/tNNNSG5B3XtjK6dYvT7ptd+FhMeuR/uDlJiHMh7fVtT4hGWStPZRI8ZZZuElmSMppxoaGq4IIXw554e5fYzxZ5VKZX6lUtnLqm+Zzs7ON7/pTW/6PXA+5Hq6Sw/w3oaGhvut+oa5AFCSJGnwnsTS2QEwFmQHwB5+n1jEr2Q0p3oxbcqpTIhT+AGBfzMb6ud+MhNYldgFcm5sTXhhShZSOJX/B3w04UP4XWjn11aynwXaga7Eov5RnMKbLd4W9ofAmQk/RP2eGfYHKTEpfEF2Rjw5tyPKJG3qY3IIjgHesBrg+F8px/74xz9+BegswKGOA26pVCpnzZkzZysrv2kqlcpeHR0ds2OMv4sxHlGA54MzGhsbF1j5l+YCQEmSpMGyjJtI58vf18QzGZH7F4kLWQLclljYX4qtjPSCemmxlXpauSDpL9+VTj/5MY8D/5NY2EOAS2Mrr7CCm9VjjiQmPUo5UuJTVnIA+sM0/g78PLn+EPhlPJ3dreBm94f2pPtD4FPu/icl544EYtyWOj5vqSQBNDY23gPcaCbW63eNjY2PmgYpv9ra2mo9PT3vA+4qwOEOA86ur6+/s6Oj48S2tjbXLr2Ezs7OV3d0dEwH/hpCeDcQ8n7MMcazGxoa2q3+xvEikiRJGiRhNquBm5J5buzijQUpTWq/JNoB+IJX1Eu8KJ7MdgQqwElmQwPX6PkGUE0s6pcBc+KJuR4b0fc9ZiqHAJcD6f5qOfLzMC2h3YnT9w3W7OCRkpfTwxx/eLBZ/WEuMDzhw5gV2llkNaXknkVvT+QZ5ONxKq+zYJIAYozuAriBZzJTIOXf0Ucf/WSM8RhgeUEOebcQwo+POOKIP3V2dk6MMQbPghfq6OjYt1Kp/DjGeGcIoZU1P+IugvObmpraPAM2ngsAJUmSBlc6X6SFgowBjlyRYNSfjKcWpD6bU9LT2Jcy1xJ5h9nQgLbN6dwN/CLB0A+instjK47g2JgecyoHEKlA0ouiVlF2MfmA9od27iBwSYKhvw7sDxvdH1o5sLc/pLyTdhc1d+eSklRNZAEg1BGZHtv8vkoS1NfX/8IsrFOtVCr9yjRIxdDU1HRnCKEF6CnQYR8cY/xNZ2fnXyqVyocWLlxYV+RzoK2trVSpVMZ2dnbOCiH8FTgRqC9QCi689tprP2I32DS+UEmSJA2udBYAxoIsMAtcCTyTWNR11PipX8av47SdQgNV/gjsbTY0SL3zP0lvly8IvAW4NE4qzC9KN7fH7EONK4DtE7/3nROm8YAVHWBVvkaaI1WPJDI7thbqg+fN6w/koD9Evhdmcr8VlRI0nNsSeg49nMWcadEkjR079j4cA/ziV7YQ/m/8+PFLzIRUHA0NDVfEGD9VwEM/APhJV1fX7R0dHZ/p7Ox8WZEOvrOzc/dKpfLZI4444i7gihjjJKBcsHveBddee+2Utra2mp1g07gAUJIkaTBVkxq1d2ghXi7aeYZAZ4Kh70vg215Ua8Q26mIrXycwDxhtRjRoPWUGfwVS/ZV+I6P5ZTyRYVZyHX2mlTcQWAjslPihPEDkq1Z0EPrDTP5C5DdpBk8zcKn9YYP94Srg5YkfyoOs4itWVEr0PnMuK4C7Erq3fCtO5U1WTpJjgF+sVqs5/lcqoKamph8A3y3o4e8VQvhWjPHhzs7OWZ2dnU033HBDLn+IOG/evB07OztPq1Qq18QYHwC+CexZyHeYEL49fvx4F/9tJhcASpIkDaYLuBdYmki0u8fJ7FKIutQSXawTOT22clrRL6vYyitYzFXA53znUSaU+XfSHdkxgSFU4mS2tZDP6zNTaAAWQg7ui4GPhvbkdr7N0cnE5xPuDxPtD+so6VQagauAnXNwfn40XMzTVlVK2vUJxTqEyC8L87mDpPW/ooTgAsAXqtZqtV+aBqmYGhoaPhNj/O8Cp2BIjHFSjHHe0qVLH6tUKj/t7Ox816xZs4anekCzZs0qd3R0vKlSqZxdqVSuLZVKj8YYzwPeSnG/z6gBn25oaPhsCCF65W8evwyTJEkaRAEiMaFdAOuLsQsg3cwBuhKN/vtxKu8s6jUVp/AB4Obe8aVSNnr9+dwJXJDwIRxFPfPjSexoNSG28lECc4EROTicS8N05ljVQewPM7mdyE+S7g91VGIrO1hNiFP4GJHLIQeLIgO/CjMS3aFS0vOv5esTi3gn6vhF/ATDLZ5UXI2NjfcAfzYTa/3fhAkT/mYapII+zoUQV65cORm4wmwwGvhgjPFXI0aMeKJSqVxZqVTOqlQqb501a9aQrAZ9xRVXjOzs7BxXqVS+VKlULh8xYsTSEMIfgLOAwynYiN91eDrG+O7GxsbveopvmTpTIEmSNNhvcFwHNCcRa+RQ4LLcl+QilsdW5gLHJxh+PZHZ8VTeGaZxY1Euo3gqr6LG+UCjTUWZVOM/KPF+Ul0UEjmCeq6NU5kYpnNbEUsYz2QoXXwXOCMnh7SSEh/z4syAKmdRx3uBrRM9gjcD18ZTmBhmcnth+8Nq/ovI6Tk5pKco2x+kfDQofp9g1EfyNHNiK8e4S7FUXCGE2THGN5gJCCE4/lcquJaWltWXXXbZCUOHDv0tFGSThpc2DBjT+8fZI0aMWNXR0XFrCOHGGONNpVLpptWrV981ceLEAZvAtXDhwlHd3d17VavV15RKpdfGGPcF9q9Wq3vj5mzr81CpVDp2/PjxN5mKf5o1a9aQbbbZZmRdXd2oarU6KoTwZO8PJDbIBYCSJEmDLbCIVDa0jhxWoLr8NzHJBYAAo6lxZTyFpjCTa/NcpthGHUv4GDXOJnsLJ+7s/fO+NjqFmTwWW/k28OWED2MPIn+IU3lvmE6lSPWLrRxIFz8DDsrRYf1bmMZir84M9IcLWRKn8l0iZyV8GHtS4o9xCu8JM+gsVH84hYN6+8OBOTqsz4XzeNirU8qBXbiJJTwBbJdY5O8ELo8fZKKjyKViqlars0ul0tfNBNVyuez4X0kce+yxKyuVSiPwW+BgM/Iiw0IIhwCHhBCIMVJfX0+lUlkJ3A/cH2N8qFQqLYsxLosxLiuXy8uq1erKUqm0GqBcLj/53L+sq6tr67q6uiEAtVptOLB1qVQaVavVRoUQRrFmN8KXA7sCuwGv6Orq2hrguf9/bViMcU59ff1JY8eOXZa3Y5s3b97QIUOGjOrq6hpZLpdHPf/ciTGu/TPw3B8jn/fXo4Ctes89QggA3wQ+91L/vy4AlCRJGmw9XEeZCITMxxo4JEIIkP+3lyHMpSvJL0qeM4oS8+OpHBOmcVUuXxBbmcASvgEckMHwVtLDO6jjeOBcG516fRc4CXh1wscwksjcOIVvs5yzwmxW57lgsY0Si/kk8FVgaH4OjHnMYJqXZIY8w7cYzoeBVybdHwLzYivfAs4K7XTnvj8s4VPAV3LVH6CDds7zopTyIbRRi1O5mshxCYY/huHMj6fS4o8WpOJpbm6+t1Kp/Bko+i6A14wdO/YxzwhJAI2NjU/MmTNnXH19/UKy+Zl4Fm3Lmh/0HvT8hXkhhLWLq57773p6etb+Q+Vy+QV/L0CMce1fa4t0xRi/0NjYeE4IIZPfNS5cuHDYM888M6qurm4UMLJWq41axwLQkc8t5utd0DcSeO6vh/f09FAur5nuXKvV1p5Dz/9zX3MBoCRJ0iALF/BEbOUeYO8Ewh3NFPZmBnflvi7n0hWnciGRTyf9clujM7byqdDOD/NSm3gqh1HjW8BR2Q2SL4cLWRJb7XF6Xl9p55k4hTMIzEv8UEoE/o3tGBtP4wPh/LW7XeZKnMreLKadwNtzdmiPE5lciMX8KfWHi3k6TuVMIr9Jvj+s+UXy2DiFD4ScPjPGKezDEtoz/SyyeZYCJ9sfpJypsYCQ5AJAgDdT48Y4hQ8WbYdZSY4B7uX4X0kvMHHixKXz5s17R6lUugp4rRlRYv5Sq9VObG5uvrFfb56zZg3faquthg0ZMmR4rVYbHWMcXSqVRscYRwPr/M8hhNGsWdg3uqura9i/LgJd1wLQ5y8Ofc5g7v7oAkBJkqRsWEQaCwChxGGQ/wWAvcd6PlU+yZovs1M1BDg3tvIW6pgSzuOpVA8ktnI48FlqHEe2d8y8g+X8wLamdQkz6IhTmUWkJfmDibyRKjfGVr7Ds3wzL+PZ4hlsTw9fInI6gfr8nYRMCTNxB4kslmY6c2IrvwSOz8HhHELgxjiV7/AM38pVf1jNfxA4FXLYHyKtYQaPejVKubu2f0Pgh6QwdWDddiQwL07lm2zFV8I5PGtRpWJwDDDVEILjfyW9SHNz8+OVSmUssAAXASoRIYRrt99++7cdcsghLzkxorOzc+sQwsienp5R5XJ57c57IYSRzx+lWyqVRtdqtZG9u/I9/4/nxjc/9//9goV56/rPeeACQEmSpEw8+XIdkf+XRKw1DgN+VoiynM99sZW5wMQcHM576eGw2MpHQztzUwm6d/zm0ZT4NJG3JnI9fzTvY1G1pSc2HwcagJE5OJrhwJcYzuQ4hc+zK/8d2qglWZZJDGE0Z9LNv7Pm1555fN6YEaZzmRdhhpX4KDXGAiNycDRbETmL4UyOU/k8O/M/yfaHMxnKqt7+EBiV03vTBWEGv/IilHJ4+5/JI3EK1xM4LOk7ZOTzPM0HYiufp53/dbdSKf+KPgY4xnh1Y2Pj3z0TJK1LY2Pjo3PmzDmqvr6+ArzRjCiB+9oRS5cuPadSqSx5bgFf759H9/71SHoX8MUY62OMlEqlF+y89/y/Xt+ufEVWMgWSJEkZEFiU0BPkoQV7Yv5mjo5mD+Dy2Mqv4qm8KtMvg63sHKfwaZZwG4HLkln8F7kkTOcKm5o22PLbeRSSHi++LrsS+ClLuD1O5dT4CYanEnj8IFvHVs5gNHcA3yGvi//gz2zFx7wCM94fprEY+GzODms3IhezhNtiK1MT7A8foYs7CHwbcrr4D25kG870CpRy7dc5OY5XAP9NK3+MUxkXE9zVMLbyhjiVb8dW/uRpKW3E83EIswt8+I7/lbRBEydOXDp06NC3xxivNBtKxBnA12KMnwGmxBgnAWNDCIewZkrajuRx4sIAcQGgJElSFtRzM9CVRKyRg+OkNdtnF0GYxu+JXJWzw3oXNe6MrVwYT2G/zJxaJzIsTqElTmEu8HDvF+37JpTXxQROs6Fpo3pLOzOB3+Tw0PYhcj5P81Bs5WtxanbHkMSpvDZO5dsM5yHgh8Crc3zKLaXK8Y7MS0Q77QQuz+GR7QtM42kejK18NUvPIC/qD1PYP7bynd7+cC5k+4cTW2gZJfuDlHtl/hfS3IV1PQ4nMp9Wbo9T+Fg8MdsLtOMp7BencnZs5U7gT0Q+DezuiSm9tGq1WtQFgD2lUsndmSW9pDFjxjzV09MzEeg0G1KxOQJYkiQpA8K5dMVWbgIOTyDcYWzHQcANhSlQia8SeXvOjmoIcBIlPhxbmUvkJ2zDvIH+8jeeysuITCByNGtGom6daD6rRD4QZrDUjqZN6C1TqHE48PIcHt0OwBeIfCG28hfgfynzq3A+dw5mUHEqexN5F5F3E5Meg7cpegi8N1zAg150iTwXQoxVTqHEX4CX5fAQdwT+nRL/Hlu5Gfh5JvrDFPYhcCwwCQqz43WVwPvCNB7wypNyfm+ZxgNxCtcQcvdeuy+B7zGEr8VW5hCYS6QS2gf3vSx+guE8zVuJNBBoBF7rwGJp8/SOAf4TxRtveVVDQ4PjfyVtlIkTJz6zcOHCo7u6un4A/kBdKioXAEqSJGXHItJYAAiRQynQAsAwnd/GVuYD43N4eCVgIoGJPM3K3i9NLqfM78J5PNznp87JvJI6DiVyKIG3UeMw8rEz+VfDDK62jWmTess0/h6ncAqB35Dg+LJNcBBwEFW+Hlt5FFhI5CrK/JEad4Z2uvvtdnU6u9PNWwi8DRhD5DVrkl+gEy3y+dDOb73iEusPM3ksTmEKgctyfqivA17X2x+WAFcNeH+AowiMIa1dh/vKF8J0rvCKkwrjJ5C7BYDP2Rp4L5H3AtXYynUErgD+TOTG0M5D/fq41UYdf+M11BhHoIGneRswvFDPnFL/mk3BFgAWfPSxpM0wZsyYHuD0SqVyJ/BfOA1UKhwXAEqSJGVF5LpkPhwOHAacX6j6BD5LZGzOX5y3Bd5P5P30QGzlEQJ/IHI7cD+B+ylzP5GnWMqKMJvqC07hVraizFAiI6myC/AKAq8AXgHsCbwBeNnanQ/yswPCNTzJV2xi2qzWMoPLYyvfAz5RkEPeGXg/gff3DqHrjq3cReCvRG4j8CjwKIHH6GEJ9Ty9rn7zvL4zEtiBEttTZVdKvJrIq4H9gNfTw3YF/+L1x8zgu15pyfaH38SpfJ/IxwpyyLusoz/cCfwVuJ3IEkr8bYv7Q+C1RA62P/AT2vm2V5pUqHfaWcB3gO1zfqRl4E1E3vS8e8JSIjcSuKv3WfNhaiwhspgqSxlGDy9nZWijZz33lHpKjCYwmh52osQrqfEqAnsAB7KE/YGhOXvPlbLTvkKYFWP8OsX5KVcP8GsrL2lzNDY2fr+jo+PhEMLFwFZmRCoOFwBKkiRlRY1FlBOJtThjE9cK07k5tnIRMLlAh70bkZbn1Z21X4eMhthKN/AUUA9sA7D2K/jifKG+mBLvX9/iA2mj7MJnWcLBwJgCHn09sD+R/df2mef+XOrtKWv6DcDTwOrev2MEPO+uWevtO37h+vx79Tx2pTWYlbTtzKd7+8NRBe0PB/T+8c9rfN394SlYu1vghvuDVwRABzDF/iAV7J22nWdiK9OBLxTw8HcgMA4Yt/ZeEHr/eO6esmTtPWXF895sWfu+W3veu24Ed/eTBk5DQ8P9lUrlzxRnF0DH/0raIk1NTb/sXQR4KbC7GZGKwW0/JUmSsuIC7gWWJRLta+KZjChcjbr5HPCEJ+ta9cBonlv8VzzLgaYwjcWeCtoSoY0eunkP9O9oshzYurfnjIZklswPlkWsomV9u9gosf5QogV42Gxs0Db2h40UuY5nmdSf45UlZVgPP+KfP6jQuo143j2lyO+7UtYUaSTuLMstaUs1NTVdX1dX9/oY43yzIRWDCwAlSZIyoncHjuuSeY7sKsyvbv9Zox/zOIHPerYKWEXkXaGdW0yF+qy/1DgeeNZsaAvdBRwdLuZpU5GT/jCNvxM5AVhlNrSF7qbH/iAV+p5yIUuAH5sJScn1rxBmUYzdi3tqtdqvrbikvjB27NhljY2NjcDnYO1+xpJyygWAkiRJ2bIomUhD8cYAAzCdC4FrPFULrUbgg2EGV5sK9WlbncmfiLwX3LVNm+0BSjSEdpaaipz1hxlcD7wPHDmvzfYgNRrCj3ncVEiFf5v5Ki4ql5SYhoaG+2OMfyrAoS5sbm72eU1SnwkhxMbGxm+GEN5FOhOoJG0GFwBKkiRl6m0soQWAkUOLWSIiJT4MrPCELaRI5MwwnUtMhfqlx8zgNwROpRg7G6hv3U+Vt4dpPGAqctof2vk12B+0WR6gxNvDTO43FZLCTB4BzjcTkpLrXyEU4bMYx/9K6hcNDQ1z6urq9g8hzDMbUj65AFCSJClLeriOdL7UPayoZQrTeIDIxzxhC6cKtIYZnGcq1K89ZjoXEPl3M6FN8CA13hku4EFTkfP+0M5M4EtmQpvYH97h4mBJLzCUNuBREyEpqWfh/I8B7qnVapdZaUn9ZezYsY+NHz/+6BDCVOAZMyLliwsAJUmSMiRcwBPAPYmEu3tsZefC1moGFwE/96wtjFUETuhdeCENRI/5OpFvmglthHuocaQ7exWoP7TzNeDbZkIb4V7qeKv9QdKL7iXnsgL4vJmQlJK8jwGOMV7p+F9J/f4cGEJsaGhojzG+CbjJjEj5USKwyjRIUsaUedYkSEV+A+O6ZGIt6BjgteqYAtzmSZt7/yDSGKbjr7A1sLeDGXwOaDMT2oCb6OGo3lF+KlJ/aOezBL5sJrQBN1PiqHAeD5sKSevUzk+JXGUiJCX1HBzC7BwfnuN/JQ2YpqamvwwdOvRQ4OPA02ZESl+JwErTIEkZU2WFSZAKbVEykYbijgEGCOfxFGWOB/t2jj1CiTFhBlebCg1Kn2nnbOCzZkLrUKGHt4ULWWIqCtofpvMfBD5nJrQO8xnK28I0FpsKSet/nScS+DCw3GxISqZ3rVkAmMcxwN319fW/tsKSBtKYMWN6Ghsbv19XV3cQsMCMSGkrEXnANEhSpvRQcgcPqdBCQgsAY7EXAAKE87mTyHuBHk/e3FlIiTeGadxoKjSofaadbxM5A6iaDfWayS5MDBf6o87C94fpfBM40/6g57kQOLp3vKckvdRz5kMEzjQTklKR4zHAV44dO3aZFZY0GMaOHXtfQ0PDeGAy8JgZkdJU4kkeAJ4xFZKUGXeHdrpNg1Rg9dwMdCURa+CQCKHoJQsz6AA+4smbG5HAd9iF8WEafzcdykifOQ84FlzwVfj+BF8M7UwJbS48V29/aOeHBI6zP9gfgLNCOyf7mYKkTbqPTOdnQLuZkJRM38rhGOAQguN/JQ12H4qNjY0/DiHsGWM8m1S+o5K0VinMpgr8wVRIUmZcYwqkgr9onUsXcFMi4Y5mCntbNQjtTAe+ZiaSt5JAS5jOZ1xcowz2mbnAW4AHzUYhPUng2NDuvUbr6A/TmUONI4GHzEYhLSfyrtDOV0yFpM18yjgT+J2JkJSCGOMs8jUGuDvG+GsrKykLGhoanm5qamoDDsjjgmspz0oABDpMhSRlhD1ZEkDkuoSeKA+zYL0tvJ0vEviOmUjW9cBhYTqXmApluM/cQo3DifzebBTKjZQ5JExnjqnQevvDTP5CjcPwh75FcxNwSJjBb0yFpM2+h8xmNTXeDdxrNiRlXVNT0wPADTk6pAWNjY1PWFlJWdLY2HhPQ0NDSwjhLcBCMyJl35oFgJH/BXe3kKQMWMYTLgCUBMCiZCKNHGq5/ilM5zNE/stMJKUbaGMX3hzaucN0KPN9ZiaPsStvB74B1MxI7l3I1rwlnM99pkIb1R/g7US+Sb52RdE6C85FbM2bQ7sLdiT10T2kxjhgidmQlHUxxjztSuUOW5Iyq6Gh4Q+NjY3vAMax5gf0kjKqBBDaeZTow4UkZcC0MJvVpkEStYQWAAZ3AHxRSmbwKeAsM5GE2wi8ObRztiN/lVSfaaMntPN5oAl4zIzk0nIiHwrtnBzO4VnToY3uD+10hxl8jkgT8Hczkkv/AE4M0znJ/iCpT+8hM7mfwDifLyVlXalUuoR8/OClG7jMikrKusbGxgUNDQ2HhxCOg4QmWElFej563l9/DXcBlKTB9A/ge6ZBEgAXcC+wLIlYIwfHSQyxaC8U2vkKMMVn7MzqJvAdVvPGMD1XY2NUvF4znzoOBneRzpXIFdRxUJjBxSZDm90fZtAJHAxUzEauLKCOA0M7PzEVkvrl/jGd2wi8FXjAbEjKqoaGhvvJwRjgEMIVjv+VlFDPig0NDb9ubGw8PMb4VuBynD4gZcbaBYBhBn8l8CNTIkmD5qzQzlLTIAkgrHlpSuVXVMMYyYFWbR11bGcmgYnAk2YjUxYSeX2YzmfCRawyHUq+15zH30I7zUQ+RCqLx7U+TwOnM4OGcB4Pmw71wbPIo6GdJgIftj/koD9EzqCd8fYHSf1+/5jO3ZQ4ErjFbEjKqjyMAY4xXmIlJaWoqanpd42NjRNDCAcBPw4huDu9NMhKL/hPZb4I3GFaJGmABa7kSRdhS3qRdLZRLzkGeL0tfjoVqhwG3Go2Bt0jRN4T2nlHmMFfTYdy129mcDElXgv83Gwk+U7QCbwutHN+8NfT6vvnkZ9SY38Cs8xGgiJXUOXgMIPz7A+SBuzeMY3F1PFmoqMpJWVTXV3dL0j72cjxv5KS19DQcGtjY+PkUqm0cwhhKn4PIg2aFywADOfxFCUmsWYMpSRpYDxEmQ+E2VRNhaQXiCxKJtbgAsANpucC7qGONxG4yGwMiqeBr/EsrwkzXPignPebafw9tPM+Is3A7WYkCQ8SOCFMpzG0c6/pUL/1h5k8FqbzHgIT8AfA6XxeEHl3mMH4cAH3mA5JA37vOI+n2JXjCXwZ/OxSUraMGzfuIRIeA+z4X0k568n/aGhoaG9oaDgIeAfwP8AzZkYaOKUXPWxM41Yix7LmSzJJUv96nBqN4Tz+ZiokvcgQriOVX7FGDrVgGxbO46kwnZOIvAdHAg+UZ4j8FyX2CO18MVzsO44K1HNm0MEuHASciWM/s2oVka8Crw3T+aXp0ID1h+nMAw4i8FH7Q2Z1AV8D9gszuNR0SBrU+0YbtTCd/yDyTnAEuaRsSXwMsD9SlZS/Z8cQYmNj48LGxsYPrFixYocYYwtwOWt2PZXUj0rrvChncDU1xuKHgJLUn+4jcmSY6c4sktbzovQjlkEyOwHtFyezrVXbiLrOYBY1DnKMUr9aBfyAOvYMM/hUmMbfTYkK2W/a6Ant/JDV7AV8F3jWrGRCFbiYMvuHGXwptPtraA1Cf2inO0znXMrsTeS/eu+dykZ/+Bmwf2jni/YHSRl7l72aKgcT+SmOI5eUHbMT7Umru7u7f2P5JOVZS0vLs01NTbMbGxsn1tXV7c6aHypfwZofvUnqY6X1vszN5FrgDcAfTJMk9bnfUOXQMIO7TIWkDQrJjAEuUcchFmwjyzqTR8IM3kXkeGCxGekzTwDfosReoZ2PucOu1NtzLmJ5aOfT1LEHcA6O3xgsNeDnwAGhnQ+F87nPlGjQ+8P5PBlm8ClgD+B79odM9IcPOg5cUmbvGxfwRJjBh4F3AneaEUmDramp6QHg+gRDn3/00Uc7IURSYYwdO/axxsbGHzY2No7v7u7eLoRwTIyxHVhidqS+Udrgy1w7D/EkbwM+grsBSlJfeJjAe0M7x4YLeMJ0SNoIixKK1THAmyjM4Fc8y75E/gN4yoxstluItAK7h3b+LUxzUaW0zp5zHn8L7XySEq8m8B37zoCpAZdS4nWhnfeFdu4wJcpcf2jn0dDOJ6ixB2t2DH3arNgfJGkD942FPLl2nPzjZkTSoPakEFIcAzzbykkqqokTJz7T0NAwp6mpaWpjY+OudXV1e4YQpgIXAw+ZIWnz1L3kQ9NsqsCP4mR+SpmpBE4B9jV1krRJ/kxgOk9wUZjNatMhaaNFrkso2sMs2KYLF/M08OV4Ou308EXgZGCYmXlJq4E5wI9COwtNh7QJfWfNWOzPxBP5GkP4EHAa8Boz0+eWARdSZpq7/SmZ/jCTx4BPxxP5KvV8mMBp+Dmg/UGS1nXPWPMZ57lxMhdRxydZM9JtezMjaaDVarVLQgjfAkIiIa8eOnSo438lqdfYsWPvA9p7/6Cjo2Nf4MgQwhtDCK+PMR4EbGWmpA2r29i/MVzISuA7wHfiqbyeGmOJHEZgH2BnYFv8olKSngFWAouJ3EngD5S5IpzvSAxJm2koN9FFFzA0gWhdALgFesfVfiS28jUCnyRyKrCNmfnXRHEtkZ9R5X/dTVfawsvpIpYDP4hwLqcwhhKnA8cA9WZni/rUn4AfsRU/D+fwrAlRwv3h+xF+wFTeQeR0YKL9wf4gSS9qbWu+Ozo7fpDvMJyTgY8DrzYzkgZKU1PTA5VK5XrS+Wxy/pgxY5ZbOUlab1+/E7gTuABg1qxZ5W222WbfEMIbQggHhhD2BvaKMe6Na5Skteo25x8K07gRuNH0SZIyZQhPAy2JRPsPC6aNeu46l644heMIaSwEi22UQhs1K7cFNW/nUeAzsZWvEvgQkdOA/QqelnuI/Jw6fpbcovoqFcqZuzc945WmF/QdiMzkSuDKeAbbs5rjCbwHeDtQNkMb5X4isyjzi97PTKT89Ifp/Bb4bWxlBwLHA+8hcpT9YaPdR2S2/UEbedF9hbhm14vMqHGrhdFGnb5rdrf/QWzjhzzKeKCVyEQ283soSdqkHhTC7BhjKgsAHf8rSZugpaWlCtzW+8daMcawYMGC3Wu12l7Aq2KMu4UQXh5j3A3YKYSwa4zxZfhjRhXmIwVJkiRJmRUhMIW3UeJEIiewZuftvKsB1xL4DVV+E2Zyu2eCNAj95xReTol3A8cBR5LGbrQD6QFgNoFZYTo3mA4Vqj+czk70cIL9wf4gSRu8X5zEjgzhBGCSi8df5PHQzsuKdtCzZs0qjxgxYkwWYxs6dOgN7sqWroULF47q6uo6JIVYQwh/bGhoeNqqpamzs3P3Wq12RBZjGzZs2K/GjBnTY5WkF123W4cQRsYYRwAjgRG1Wm0UUC6VSiPWPrvGuC3+eEVZfK+KcVFTU9NVL/mMYaokSZKkRB7yP8jWbMVxvQsBxwNb5ejwFhO4Cvgtq7k8/JjHrbiUof7TylYE3kZkPDAOOKCAaVhJ4Grimt3QaOfWANGzQ/YHtiJyFIFxvc8n+xe9P4R2bvHMkKR/uV+cxI7UMZ5AY+/94mUFT0khFwBKkiRJ6h8uAJQkSZIS1LsYZxwwgcjbgb0TO4QHgWsIXE0PV4cLuMeqSkn1oJ2JHEHgMOBw4BDyt0Pp3wncCPyOGleyK9eFNvwlvbSx/WFNbzicwBtz3R/gt+zM9fYHSdqEewUETuE1lDiMwGFEDgNeR/7Hs0XgYeAuAjeF6XzGs0GSJElSX3ABoCRJkpQD8VR2JTKGyOHAG1nz5UkWdgisAfcANxK4kciNdHOjO/xJOetBbZRYzH7AGyixH/AaIvsBe5L9L3KrwEPAzURupMSNBP4cprHYykp90B8mUWZ79iPyBiL7Edg32f4Af6bMjfYHSeqH+8WJDGMor6fGYQQOILIXgT2B3Ujru6wuYDHwMJF7KHE3cDeRu1nN3eEiVlltSZIkSX3NBYCSJElSDsU26niUfVizCGcfYB8CexHZBdgVGNaH/3fLgMeJPAzcS+Ae4F7gXrbmnnAOz1oRqaC9qJV6yuxBD3tTYrfeHvSK3j60K7AzMKqfw/gHsLT3j0eA+4D7idxHift4ggfDbFZbLcn+ANxH4D5q3G9/kKSM3C9OZBjD2IsaewF7EtgD2JnI9sD2wA69f67r51CeApYReu8bkceJLKbEYmo8SGQxQ1gczuNvVk2SJEnSQHMBoCRJklRA8Qy2p4eXAyOBkdQYRYkRa/5HtiIwtPevVxN4Gugm8hSBKpEngaXU8TgvY6kj7yRtUT+CwGmMoptR1DGKGqOIjCJQR2RrSgzp/RuHENj6ef/gCgJVoEpkRe9/9yyRfxB4gshSdmOZPUqyP7ygP5RZRpVl9gdJytk940RGMZQdgR2osTVQJqx9xx1GieG9f+s2PLcDbY1VlNb+YO0ZIl0ABFYSWEWNZfSwjK1ZFs7t/d8kSZIkSZIkSZIkSZIkSZIkSZIkSZIkSZIkSZIkSZIkSZIkSZIkSZIkSZIkSZIkSZIkSZIkSZIkSZIkSZIkSZIkSZIkSZIkSZIkSZIkSZIkSZIkSZIkSZIkSZIkSZIkSZIkSZIkSZIkSZIkSZIkSZIkSZIkSZIkSZIkSZIkSZIkSZIkSZIkSZIkSZIkSZIkSZIkSZIkSZIkSZKUAf8fHIgbVyppTWIAAAAldEVYdGRhdGU6Y3JlYXRlADIwMjItMDEtMjFUMDE6MDg6MjcrMDA6MDDGuY7+AAAAJXRFWHRkYXRlOm1vZGlmeQAyMDIyLTAxLTIxVDAxOjA4OjI3KzAwOjAwt+Q2QgAAAABJRU5ErkJggg==;" parent="yq9Uw6k68tb3Hdlw_wv9-6" vertex="1">
          <mxGeometry x="22" y="50" width="134" height="21.04" as="geometry" />
        </mxCell>
        <mxCell id="yq9Uw6k68tb3Hdlw_wv9-7" style="edgeStyle=orthogonalEdgeStyle;rounded=0;orthogonalLoop=1;jettySize=auto;html=1;entryX=0;entryY=0;entryDx=70;entryDy=80;entryPerimeter=0;" parent="1" source="yq9Uw6k68tb3Hdlw_wv9-5" target="fBMlEVeHAcpWcudAE6il-25" edge="1">
          <mxGeometry relative="1" as="geometry" />
        </mxCell>
        <mxCell id="xj_OzP7Cz5BRyPXDLLyR-1" style="edgeStyle=orthogonalEdgeStyle;rounded=0;orthogonalLoop=1;jettySize=auto;html=1;exitX=0.5;exitY=0;exitDx=0;exitDy=0;entryX=0.738;entryY=0.033;entryDx=0;entryDy=0;entryPerimeter=0;" parent="1" source="yq9Uw6k68tb3Hdlw_wv9-5" target="fBMlEVeHAcpWcudAE6il-17" edge="1">
          <mxGeometry relative="1" as="geometry" />
        </mxCell>
        <mxCell id="e7AcpeO70v1B4CvulHkZ-5" style="edgeStyle=orthogonalEdgeStyle;rounded=0;orthogonalLoop=1;jettySize=auto;html=1;exitX=0;exitY=0.25;exitDx=0;exitDy=0;entryX=0;entryY=0;entryDx=50;entryDy=0;entryPerimeter=0;" parent="1" source="yq9Uw6k68tb3Hdlw_wv9-5" target="fBMlEVeHAcpWcudAE6il-2" edge="1">
          <mxGeometry relative="1" as="geometry">
            <Array as="points">
              <mxPoint x="610" y="195" />
            </Array>
          </mxGeometry>
        </mxCell>
      </root>
    </mxGraphModel>
  </diagram>
</mxfile>
